G75*
%MOIN*%
%OFA0B0*%
%FSLAX25Y25*%
%IPPOS*%
%LPD*%
%AMOC8*
5,1,8,0,0,1.08239X$1,22.5*
%
%ADD10C,0.00600*%
%ADD11C,0.00500*%
%ADD12C,0.00400*%
%ADD13R,0.01181X0.00591*%
%ADD14R,0.01181X0.01181*%
%ADD15C,0.03000*%
%ADD16R,0.03000X0.02000*%
%ADD17R,0.03000X0.04000*%
%ADD18C,0.00800*%
%ADD19R,0.06200X0.02400*%
%ADD20C,0.00300*%
D10*
X0074041Y0017193D02*
X0074041Y0022193D01*
X0076541Y0024693D01*
X0081541Y0024693D01*
X0084041Y0022193D01*
X0086541Y0024693D01*
X0091541Y0024693D01*
X0094041Y0022193D01*
X0096541Y0024693D01*
X0101541Y0024693D01*
X0104041Y0022193D01*
X0106541Y0024693D01*
X0111541Y0024693D01*
X0114041Y0022193D01*
X0116541Y0024693D01*
X0121541Y0024693D01*
X0124041Y0022193D01*
X0126541Y0024693D01*
X0131541Y0024693D01*
X0134041Y0022193D01*
X0134041Y0017193D01*
X0131541Y0014693D01*
X0126541Y0014693D01*
X0124041Y0017193D01*
X0121541Y0014693D01*
X0116541Y0014693D01*
X0114041Y0017193D01*
X0114041Y0022193D01*
X0114041Y0017193D02*
X0111541Y0014693D01*
X0106541Y0014693D01*
X0104041Y0017193D01*
X0101541Y0014693D01*
X0096541Y0014693D01*
X0094041Y0017193D01*
X0091541Y0014693D01*
X0086541Y0014693D01*
X0084041Y0017193D01*
X0081541Y0014693D01*
X0076541Y0014693D01*
X0074041Y0017193D01*
X0084041Y0017193D02*
X0084041Y0022193D01*
X0094041Y0022193D02*
X0094041Y0017193D01*
X0104041Y0017193D02*
X0104041Y0022193D01*
X0124041Y0022193D02*
X0124041Y0017193D01*
X0116714Y0039004D02*
X0116714Y0058020D01*
X0089789Y0058020D01*
X0089789Y0039004D01*
X0116714Y0039004D01*
X0110002Y0054012D02*
X0110004Y0054111D01*
X0110010Y0054211D01*
X0110020Y0054310D01*
X0110034Y0054408D01*
X0110051Y0054506D01*
X0110073Y0054603D01*
X0110098Y0054699D01*
X0110127Y0054794D01*
X0110160Y0054888D01*
X0110197Y0054980D01*
X0110237Y0055071D01*
X0110281Y0055160D01*
X0110329Y0055248D01*
X0110380Y0055333D01*
X0110434Y0055416D01*
X0110491Y0055498D01*
X0110552Y0055576D01*
X0110616Y0055653D01*
X0110682Y0055726D01*
X0110752Y0055797D01*
X0110824Y0055865D01*
X0110899Y0055931D01*
X0110977Y0055993D01*
X0111057Y0056052D01*
X0111139Y0056108D01*
X0111223Y0056160D01*
X0111310Y0056209D01*
X0111398Y0056255D01*
X0111488Y0056297D01*
X0111580Y0056336D01*
X0111673Y0056371D01*
X0111767Y0056402D01*
X0111863Y0056429D01*
X0111960Y0056452D01*
X0112057Y0056472D01*
X0112155Y0056488D01*
X0112254Y0056500D01*
X0112353Y0056508D01*
X0112452Y0056512D01*
X0112552Y0056512D01*
X0112651Y0056508D01*
X0112750Y0056500D01*
X0112849Y0056488D01*
X0112947Y0056472D01*
X0113044Y0056452D01*
X0113141Y0056429D01*
X0113237Y0056402D01*
X0113331Y0056371D01*
X0113424Y0056336D01*
X0113516Y0056297D01*
X0113606Y0056255D01*
X0113694Y0056209D01*
X0113781Y0056160D01*
X0113865Y0056108D01*
X0113947Y0056052D01*
X0114027Y0055993D01*
X0114105Y0055931D01*
X0114180Y0055865D01*
X0114252Y0055797D01*
X0114322Y0055726D01*
X0114388Y0055653D01*
X0114452Y0055576D01*
X0114513Y0055498D01*
X0114570Y0055416D01*
X0114624Y0055333D01*
X0114675Y0055248D01*
X0114723Y0055160D01*
X0114767Y0055071D01*
X0114807Y0054980D01*
X0114844Y0054888D01*
X0114877Y0054794D01*
X0114906Y0054699D01*
X0114931Y0054603D01*
X0114953Y0054506D01*
X0114970Y0054408D01*
X0114984Y0054310D01*
X0114994Y0054211D01*
X0115000Y0054111D01*
X0115002Y0054012D01*
X0115000Y0053913D01*
X0114994Y0053813D01*
X0114984Y0053714D01*
X0114970Y0053616D01*
X0114953Y0053518D01*
X0114931Y0053421D01*
X0114906Y0053325D01*
X0114877Y0053230D01*
X0114844Y0053136D01*
X0114807Y0053044D01*
X0114767Y0052953D01*
X0114723Y0052864D01*
X0114675Y0052776D01*
X0114624Y0052691D01*
X0114570Y0052608D01*
X0114513Y0052526D01*
X0114452Y0052448D01*
X0114388Y0052371D01*
X0114322Y0052298D01*
X0114252Y0052227D01*
X0114180Y0052159D01*
X0114105Y0052093D01*
X0114027Y0052031D01*
X0113947Y0051972D01*
X0113865Y0051916D01*
X0113781Y0051864D01*
X0113694Y0051815D01*
X0113606Y0051769D01*
X0113516Y0051727D01*
X0113424Y0051688D01*
X0113331Y0051653D01*
X0113237Y0051622D01*
X0113141Y0051595D01*
X0113044Y0051572D01*
X0112947Y0051552D01*
X0112849Y0051536D01*
X0112750Y0051524D01*
X0112651Y0051516D01*
X0112552Y0051512D01*
X0112452Y0051512D01*
X0112353Y0051516D01*
X0112254Y0051524D01*
X0112155Y0051536D01*
X0112057Y0051552D01*
X0111960Y0051572D01*
X0111863Y0051595D01*
X0111767Y0051622D01*
X0111673Y0051653D01*
X0111580Y0051688D01*
X0111488Y0051727D01*
X0111398Y0051769D01*
X0111310Y0051815D01*
X0111223Y0051864D01*
X0111139Y0051916D01*
X0111057Y0051972D01*
X0110977Y0052031D01*
X0110899Y0052093D01*
X0110824Y0052159D01*
X0110752Y0052227D01*
X0110682Y0052298D01*
X0110616Y0052371D01*
X0110552Y0052448D01*
X0110491Y0052526D01*
X0110434Y0052608D01*
X0110380Y0052691D01*
X0110329Y0052776D01*
X0110281Y0052864D01*
X0110237Y0052953D01*
X0110197Y0053044D01*
X0110160Y0053136D01*
X0110127Y0053230D01*
X0110098Y0053325D01*
X0110073Y0053421D01*
X0110051Y0053518D01*
X0110034Y0053616D01*
X0110020Y0053714D01*
X0110010Y0053813D01*
X0110004Y0053913D01*
X0110002Y0054012D01*
X0088326Y0082906D02*
X0079126Y0082906D01*
X0079126Y0104906D01*
X0088326Y0104906D01*
X0088326Y0082906D01*
X0077932Y0082906D02*
X0077932Y0104906D01*
X0068732Y0104906D01*
X0068732Y0082906D01*
X0077932Y0082906D01*
X0067617Y0083063D02*
X0067617Y0105063D01*
X0058417Y0105063D01*
X0058417Y0083063D01*
X0067617Y0083063D01*
X0091994Y0094043D02*
X0091994Y0104043D01*
X0101994Y0104043D01*
X0111994Y0104043D01*
X0111994Y0094043D01*
X0101994Y0094043D01*
X0101994Y0104043D01*
X0101994Y0094043D02*
X0091994Y0094043D01*
X0117191Y0094043D02*
X0117191Y0104043D01*
X0127191Y0104043D01*
X0137191Y0104043D01*
X0137191Y0094043D01*
X0127191Y0094043D01*
X0127191Y0104043D01*
X0127191Y0094043D02*
X0117191Y0094043D01*
X0041791Y0104906D02*
X0041791Y0082906D01*
X0032591Y0082906D01*
X0032591Y0104906D01*
X0041791Y0104906D01*
D11*
X0039673Y0102868D02*
X0039673Y0100368D01*
X0037173Y0102493D01*
X0035173Y0101743D02*
X0035175Y0101670D01*
X0035180Y0101598D01*
X0035189Y0101526D01*
X0035202Y0101454D01*
X0035218Y0101383D01*
X0035238Y0101313D01*
X0035262Y0101245D01*
X0035288Y0101177D01*
X0035319Y0101111D01*
X0035352Y0101046D01*
X0035389Y0100984D01*
X0035428Y0100923D01*
X0035471Y0100864D01*
X0035517Y0100807D01*
X0035565Y0100753D01*
X0035616Y0100702D01*
X0035670Y0100652D01*
X0035726Y0100606D01*
X0035784Y0100563D01*
X0035845Y0100522D01*
X0035907Y0100485D01*
X0035971Y0100451D01*
X0036037Y0100420D01*
X0036104Y0100392D01*
X0036173Y0100368D01*
X0037173Y0102493D02*
X0037127Y0102539D01*
X0037078Y0102583D01*
X0037027Y0102623D01*
X0036974Y0102661D01*
X0036919Y0102696D01*
X0036862Y0102728D01*
X0036804Y0102757D01*
X0036744Y0102783D01*
X0036682Y0102805D01*
X0036620Y0102824D01*
X0036557Y0102840D01*
X0036493Y0102852D01*
X0036428Y0102861D01*
X0036363Y0102866D01*
X0036298Y0102868D01*
X0036233Y0102866D01*
X0036167Y0102860D01*
X0036103Y0102851D01*
X0036039Y0102838D01*
X0035975Y0102821D01*
X0035913Y0102800D01*
X0035852Y0102776D01*
X0035793Y0102748D01*
X0035736Y0102717D01*
X0035680Y0102683D01*
X0035626Y0102645D01*
X0035575Y0102605D01*
X0035526Y0102561D01*
X0035480Y0102515D01*
X0035436Y0102466D01*
X0035396Y0102415D01*
X0035358Y0102361D01*
X0035324Y0102306D01*
X0035293Y0102248D01*
X0035265Y0102189D01*
X0035241Y0102128D01*
X0035220Y0102066D01*
X0035203Y0102002D01*
X0035190Y0101938D01*
X0035181Y0101874D01*
X0035175Y0101808D01*
X0035173Y0101743D01*
X0036423Y0098218D02*
X0038423Y0098218D01*
X0038491Y0098216D01*
X0038558Y0098211D01*
X0038625Y0098202D01*
X0038692Y0098189D01*
X0038757Y0098172D01*
X0038822Y0098153D01*
X0038886Y0098129D01*
X0038948Y0098102D01*
X0039009Y0098072D01*
X0039067Y0098039D01*
X0039124Y0098003D01*
X0039179Y0097963D01*
X0039232Y0097921D01*
X0039283Y0097875D01*
X0039330Y0097828D01*
X0039376Y0097777D01*
X0039418Y0097724D01*
X0039458Y0097669D01*
X0039494Y0097612D01*
X0039527Y0097554D01*
X0039557Y0097493D01*
X0039584Y0097431D01*
X0039608Y0097367D01*
X0039627Y0097302D01*
X0039644Y0097237D01*
X0039657Y0097170D01*
X0039666Y0097103D01*
X0039671Y0097036D01*
X0039673Y0096968D01*
X0039673Y0095718D01*
X0035173Y0095718D01*
X0035173Y0096968D01*
X0035175Y0097036D01*
X0035180Y0097103D01*
X0035189Y0097170D01*
X0035202Y0097237D01*
X0035219Y0097302D01*
X0035238Y0097367D01*
X0035262Y0097431D01*
X0035289Y0097493D01*
X0035319Y0097554D01*
X0035352Y0097612D01*
X0035388Y0097669D01*
X0035428Y0097724D01*
X0035470Y0097777D01*
X0035516Y0097828D01*
X0035563Y0097875D01*
X0035614Y0097921D01*
X0035667Y0097963D01*
X0035722Y0098003D01*
X0035779Y0098039D01*
X0035837Y0098072D01*
X0035898Y0098102D01*
X0035960Y0098129D01*
X0036024Y0098153D01*
X0036089Y0098172D01*
X0036154Y0098189D01*
X0036221Y0098202D01*
X0036288Y0098211D01*
X0036355Y0098216D01*
X0036423Y0098218D01*
X0038548Y0093443D02*
X0038548Y0091193D01*
X0039673Y0090818D02*
X0035173Y0092318D01*
X0039673Y0093818D01*
X0037673Y0088043D02*
X0037673Y0086793D01*
X0037673Y0088043D02*
X0037671Y0088112D01*
X0037665Y0088181D01*
X0037656Y0088249D01*
X0037643Y0088316D01*
X0037626Y0088383D01*
X0037605Y0088449D01*
X0037581Y0088513D01*
X0037553Y0088576D01*
X0037522Y0088638D01*
X0037488Y0088698D01*
X0037450Y0088755D01*
X0037409Y0088811D01*
X0037366Y0088864D01*
X0037319Y0088915D01*
X0037270Y0088963D01*
X0037218Y0089008D01*
X0037163Y0089050D01*
X0037107Y0089089D01*
X0037048Y0089126D01*
X0036987Y0089158D01*
X0036925Y0089188D01*
X0036861Y0089214D01*
X0036796Y0089236D01*
X0036730Y0089255D01*
X0036663Y0089270D01*
X0036595Y0089281D01*
X0036526Y0089289D01*
X0036457Y0089293D01*
X0036389Y0089293D01*
X0036320Y0089289D01*
X0036251Y0089281D01*
X0036183Y0089270D01*
X0036116Y0089255D01*
X0036050Y0089236D01*
X0035985Y0089214D01*
X0035921Y0089188D01*
X0035859Y0089158D01*
X0035798Y0089126D01*
X0035739Y0089089D01*
X0035683Y0089050D01*
X0035628Y0089008D01*
X0035576Y0088963D01*
X0035527Y0088915D01*
X0035480Y0088864D01*
X0035437Y0088811D01*
X0035396Y0088755D01*
X0035358Y0088698D01*
X0035324Y0088638D01*
X0035293Y0088576D01*
X0035265Y0088513D01*
X0035241Y0088449D01*
X0035220Y0088383D01*
X0035203Y0088316D01*
X0035190Y0088249D01*
X0035181Y0088181D01*
X0035175Y0088112D01*
X0035173Y0088043D01*
X0035173Y0086793D01*
X0039673Y0086793D01*
X0061393Y0086951D02*
X0061393Y0088201D01*
X0061395Y0088270D01*
X0061401Y0088339D01*
X0061410Y0088407D01*
X0061423Y0088474D01*
X0061440Y0088541D01*
X0061461Y0088607D01*
X0061485Y0088671D01*
X0061513Y0088734D01*
X0061544Y0088796D01*
X0061578Y0088856D01*
X0061616Y0088913D01*
X0061657Y0088969D01*
X0061700Y0089022D01*
X0061747Y0089073D01*
X0061796Y0089121D01*
X0061848Y0089166D01*
X0061903Y0089208D01*
X0061959Y0089247D01*
X0062018Y0089284D01*
X0062079Y0089316D01*
X0062141Y0089346D01*
X0062205Y0089372D01*
X0062270Y0089394D01*
X0062336Y0089413D01*
X0062403Y0089428D01*
X0062471Y0089439D01*
X0062540Y0089447D01*
X0062609Y0089451D01*
X0062677Y0089451D01*
X0062746Y0089447D01*
X0062815Y0089439D01*
X0062883Y0089428D01*
X0062950Y0089413D01*
X0063016Y0089394D01*
X0063081Y0089372D01*
X0063145Y0089346D01*
X0063207Y0089316D01*
X0063268Y0089284D01*
X0063327Y0089247D01*
X0063383Y0089208D01*
X0063438Y0089166D01*
X0063490Y0089121D01*
X0063539Y0089073D01*
X0063586Y0089022D01*
X0063629Y0088969D01*
X0063670Y0088913D01*
X0063708Y0088856D01*
X0063742Y0088796D01*
X0063773Y0088734D01*
X0063801Y0088671D01*
X0063825Y0088607D01*
X0063846Y0088541D01*
X0063863Y0088474D01*
X0063876Y0088407D01*
X0063885Y0088339D01*
X0063891Y0088270D01*
X0063893Y0088201D01*
X0063893Y0086951D01*
X0065893Y0086951D02*
X0061393Y0086951D01*
X0061393Y0092476D02*
X0065893Y0090976D01*
X0064768Y0091351D02*
X0064768Y0093601D01*
X0065893Y0093976D02*
X0061393Y0092476D01*
X0061393Y0095876D02*
X0061393Y0097126D01*
X0061395Y0097194D01*
X0061400Y0097261D01*
X0061409Y0097328D01*
X0061422Y0097395D01*
X0061439Y0097460D01*
X0061458Y0097525D01*
X0061482Y0097589D01*
X0061509Y0097651D01*
X0061539Y0097712D01*
X0061572Y0097770D01*
X0061608Y0097827D01*
X0061648Y0097882D01*
X0061690Y0097935D01*
X0061736Y0097986D01*
X0061783Y0098033D01*
X0061834Y0098079D01*
X0061887Y0098121D01*
X0061942Y0098161D01*
X0061999Y0098197D01*
X0062057Y0098230D01*
X0062118Y0098260D01*
X0062180Y0098287D01*
X0062244Y0098311D01*
X0062309Y0098330D01*
X0062374Y0098347D01*
X0062441Y0098360D01*
X0062508Y0098369D01*
X0062575Y0098374D01*
X0062643Y0098376D01*
X0064643Y0098376D01*
X0064711Y0098374D01*
X0064778Y0098369D01*
X0064845Y0098360D01*
X0064912Y0098347D01*
X0064977Y0098330D01*
X0065042Y0098311D01*
X0065106Y0098287D01*
X0065168Y0098260D01*
X0065229Y0098230D01*
X0065287Y0098197D01*
X0065344Y0098161D01*
X0065399Y0098121D01*
X0065452Y0098079D01*
X0065503Y0098033D01*
X0065550Y0097986D01*
X0065596Y0097935D01*
X0065638Y0097882D01*
X0065678Y0097827D01*
X0065714Y0097770D01*
X0065747Y0097712D01*
X0065777Y0097651D01*
X0065804Y0097589D01*
X0065828Y0097525D01*
X0065847Y0097460D01*
X0065864Y0097395D01*
X0065877Y0097328D01*
X0065886Y0097261D01*
X0065891Y0097194D01*
X0065893Y0097126D01*
X0065893Y0095876D01*
X0061393Y0095876D01*
X0061393Y0100526D02*
X0061393Y0103026D01*
X0063393Y0102026D02*
X0063393Y0100526D01*
X0061393Y0100526D01*
X0063393Y0102026D02*
X0063395Y0102086D01*
X0063400Y0102147D01*
X0063409Y0102206D01*
X0063422Y0102265D01*
X0063438Y0102324D01*
X0063458Y0102381D01*
X0063481Y0102436D01*
X0063508Y0102491D01*
X0063537Y0102543D01*
X0063570Y0102594D01*
X0063606Y0102643D01*
X0063644Y0102689D01*
X0063686Y0102733D01*
X0063730Y0102775D01*
X0063776Y0102813D01*
X0063825Y0102849D01*
X0063876Y0102882D01*
X0063928Y0102911D01*
X0063983Y0102938D01*
X0064038Y0102961D01*
X0064095Y0102981D01*
X0064154Y0102997D01*
X0064213Y0103010D01*
X0064272Y0103019D01*
X0064333Y0103024D01*
X0064393Y0103026D01*
X0064893Y0103026D01*
X0064953Y0103024D01*
X0065014Y0103019D01*
X0065073Y0103010D01*
X0065132Y0102997D01*
X0065191Y0102981D01*
X0065248Y0102961D01*
X0065303Y0102938D01*
X0065358Y0102911D01*
X0065410Y0102882D01*
X0065461Y0102849D01*
X0065510Y0102813D01*
X0065556Y0102775D01*
X0065600Y0102733D01*
X0065642Y0102689D01*
X0065680Y0102643D01*
X0065716Y0102594D01*
X0065749Y0102543D01*
X0065778Y0102491D01*
X0065805Y0102436D01*
X0065828Y0102381D01*
X0065848Y0102324D01*
X0065864Y0102265D01*
X0065877Y0102206D01*
X0065886Y0102147D01*
X0065891Y0102086D01*
X0065893Y0102026D01*
X0065893Y0100526D01*
X0070921Y0101224D02*
X0075421Y0101224D01*
X0075421Y0099974D02*
X0075421Y0102474D01*
X0071921Y0099974D02*
X0070921Y0101224D01*
X0072171Y0097824D02*
X0074171Y0097824D01*
X0074239Y0097822D01*
X0074306Y0097817D01*
X0074373Y0097808D01*
X0074440Y0097795D01*
X0074505Y0097778D01*
X0074570Y0097759D01*
X0074634Y0097735D01*
X0074696Y0097708D01*
X0074757Y0097678D01*
X0074815Y0097645D01*
X0074872Y0097609D01*
X0074927Y0097569D01*
X0074980Y0097527D01*
X0075031Y0097481D01*
X0075078Y0097434D01*
X0075124Y0097383D01*
X0075166Y0097330D01*
X0075206Y0097275D01*
X0075242Y0097218D01*
X0075275Y0097160D01*
X0075305Y0097099D01*
X0075332Y0097037D01*
X0075356Y0096973D01*
X0075375Y0096908D01*
X0075392Y0096843D01*
X0075405Y0096776D01*
X0075414Y0096709D01*
X0075419Y0096642D01*
X0075421Y0096574D01*
X0075421Y0095324D01*
X0070921Y0095324D01*
X0070921Y0096574D01*
X0070923Y0096642D01*
X0070928Y0096709D01*
X0070937Y0096776D01*
X0070950Y0096843D01*
X0070967Y0096908D01*
X0070986Y0096973D01*
X0071010Y0097037D01*
X0071037Y0097099D01*
X0071067Y0097160D01*
X0071100Y0097218D01*
X0071136Y0097275D01*
X0071176Y0097330D01*
X0071218Y0097383D01*
X0071264Y0097434D01*
X0071311Y0097481D01*
X0071362Y0097527D01*
X0071415Y0097569D01*
X0071470Y0097609D01*
X0071527Y0097645D01*
X0071585Y0097678D01*
X0071646Y0097708D01*
X0071708Y0097735D01*
X0071772Y0097759D01*
X0071837Y0097778D01*
X0071902Y0097795D01*
X0071969Y0097808D01*
X0072036Y0097817D01*
X0072103Y0097822D01*
X0072171Y0097824D01*
X0075421Y0093424D02*
X0070921Y0091924D01*
X0075421Y0090424D01*
X0074296Y0090799D02*
X0074296Y0093049D01*
X0073421Y0087649D02*
X0073421Y0086399D01*
X0073421Y0087649D02*
X0073419Y0087718D01*
X0073413Y0087787D01*
X0073404Y0087855D01*
X0073391Y0087922D01*
X0073374Y0087989D01*
X0073353Y0088055D01*
X0073329Y0088119D01*
X0073301Y0088182D01*
X0073270Y0088244D01*
X0073236Y0088304D01*
X0073198Y0088361D01*
X0073157Y0088417D01*
X0073114Y0088470D01*
X0073067Y0088521D01*
X0073018Y0088569D01*
X0072966Y0088614D01*
X0072911Y0088656D01*
X0072855Y0088695D01*
X0072796Y0088732D01*
X0072735Y0088764D01*
X0072673Y0088794D01*
X0072609Y0088820D01*
X0072544Y0088842D01*
X0072478Y0088861D01*
X0072411Y0088876D01*
X0072343Y0088887D01*
X0072274Y0088895D01*
X0072205Y0088899D01*
X0072137Y0088899D01*
X0072068Y0088895D01*
X0071999Y0088887D01*
X0071931Y0088876D01*
X0071864Y0088861D01*
X0071798Y0088842D01*
X0071733Y0088820D01*
X0071669Y0088794D01*
X0071607Y0088764D01*
X0071546Y0088732D01*
X0071487Y0088695D01*
X0071431Y0088656D01*
X0071376Y0088614D01*
X0071324Y0088569D01*
X0071275Y0088521D01*
X0071228Y0088470D01*
X0071185Y0088417D01*
X0071144Y0088361D01*
X0071106Y0088304D01*
X0071072Y0088244D01*
X0071041Y0088182D01*
X0071013Y0088119D01*
X0070989Y0088055D01*
X0070968Y0087989D01*
X0070951Y0087922D01*
X0070938Y0087855D01*
X0070929Y0087787D01*
X0070923Y0087718D01*
X0070921Y0087649D01*
X0070921Y0086399D01*
X0075421Y0086399D01*
X0081708Y0086399D02*
X0081708Y0087649D01*
X0081708Y0086399D02*
X0086208Y0086399D01*
X0084208Y0086399D02*
X0084208Y0087649D01*
X0084206Y0087718D01*
X0084200Y0087787D01*
X0084191Y0087855D01*
X0084178Y0087922D01*
X0084161Y0087989D01*
X0084140Y0088055D01*
X0084116Y0088119D01*
X0084088Y0088182D01*
X0084057Y0088244D01*
X0084023Y0088304D01*
X0083985Y0088361D01*
X0083944Y0088417D01*
X0083901Y0088470D01*
X0083854Y0088521D01*
X0083805Y0088569D01*
X0083753Y0088614D01*
X0083698Y0088656D01*
X0083642Y0088695D01*
X0083583Y0088732D01*
X0083522Y0088764D01*
X0083460Y0088794D01*
X0083396Y0088820D01*
X0083331Y0088842D01*
X0083265Y0088861D01*
X0083198Y0088876D01*
X0083130Y0088887D01*
X0083061Y0088895D01*
X0082992Y0088899D01*
X0082924Y0088899D01*
X0082855Y0088895D01*
X0082786Y0088887D01*
X0082718Y0088876D01*
X0082651Y0088861D01*
X0082585Y0088842D01*
X0082520Y0088820D01*
X0082456Y0088794D01*
X0082394Y0088764D01*
X0082333Y0088732D01*
X0082274Y0088695D01*
X0082218Y0088656D01*
X0082163Y0088614D01*
X0082111Y0088569D01*
X0082062Y0088521D01*
X0082015Y0088470D01*
X0081972Y0088417D01*
X0081931Y0088361D01*
X0081893Y0088304D01*
X0081859Y0088244D01*
X0081828Y0088182D01*
X0081800Y0088119D01*
X0081776Y0088055D01*
X0081755Y0087989D01*
X0081738Y0087922D01*
X0081725Y0087855D01*
X0081716Y0087787D01*
X0081710Y0087718D01*
X0081708Y0087649D01*
X0081708Y0091924D02*
X0086208Y0090424D01*
X0085083Y0090799D02*
X0085083Y0093049D01*
X0086208Y0093424D02*
X0081708Y0091924D01*
X0081708Y0095324D02*
X0081708Y0096574D01*
X0081708Y0095324D02*
X0086208Y0095324D01*
X0086208Y0096574D01*
X0086206Y0096642D01*
X0086201Y0096709D01*
X0086192Y0096776D01*
X0086179Y0096843D01*
X0086162Y0096908D01*
X0086143Y0096973D01*
X0086119Y0097037D01*
X0086092Y0097099D01*
X0086062Y0097160D01*
X0086029Y0097218D01*
X0085993Y0097275D01*
X0085953Y0097330D01*
X0085911Y0097383D01*
X0085865Y0097434D01*
X0085818Y0097481D01*
X0085767Y0097527D01*
X0085714Y0097569D01*
X0085659Y0097609D01*
X0085602Y0097645D01*
X0085544Y0097678D01*
X0085483Y0097708D01*
X0085421Y0097735D01*
X0085357Y0097759D01*
X0085292Y0097778D01*
X0085227Y0097795D01*
X0085160Y0097808D01*
X0085093Y0097817D01*
X0085026Y0097822D01*
X0084958Y0097824D01*
X0082958Y0097824D01*
X0082890Y0097822D01*
X0082823Y0097817D01*
X0082756Y0097808D01*
X0082689Y0097795D01*
X0082624Y0097778D01*
X0082559Y0097759D01*
X0082495Y0097735D01*
X0082433Y0097708D01*
X0082372Y0097678D01*
X0082314Y0097645D01*
X0082257Y0097609D01*
X0082202Y0097569D01*
X0082149Y0097527D01*
X0082098Y0097481D01*
X0082051Y0097434D01*
X0082005Y0097383D01*
X0081963Y0097330D01*
X0081923Y0097275D01*
X0081887Y0097218D01*
X0081854Y0097160D01*
X0081824Y0097099D01*
X0081797Y0097037D01*
X0081773Y0096973D01*
X0081754Y0096908D01*
X0081737Y0096843D01*
X0081724Y0096776D01*
X0081715Y0096709D01*
X0081710Y0096642D01*
X0081708Y0096574D01*
X0081708Y0100974D02*
X0085208Y0099974D01*
X0085208Y0102474D01*
X0084208Y0101724D02*
X0086208Y0101724D01*
X0091606Y0113171D02*
X0091606Y0113671D01*
X0091604Y0113731D01*
X0091599Y0113792D01*
X0091590Y0113851D01*
X0091577Y0113910D01*
X0091561Y0113969D01*
X0091541Y0114026D01*
X0091518Y0114081D01*
X0091491Y0114136D01*
X0091462Y0114188D01*
X0091429Y0114239D01*
X0091393Y0114288D01*
X0091355Y0114334D01*
X0091313Y0114378D01*
X0091269Y0114420D01*
X0091223Y0114458D01*
X0091174Y0114494D01*
X0091123Y0114527D01*
X0091071Y0114556D01*
X0091016Y0114583D01*
X0090961Y0114606D01*
X0090904Y0114626D01*
X0090845Y0114642D01*
X0090786Y0114655D01*
X0090727Y0114664D01*
X0090666Y0114669D01*
X0090606Y0114671D01*
X0087106Y0114671D01*
X0087106Y0117026D02*
X0087106Y0118276D01*
X0087108Y0118345D01*
X0087114Y0118414D01*
X0087123Y0118482D01*
X0087136Y0118549D01*
X0087153Y0118616D01*
X0087174Y0118682D01*
X0087198Y0118746D01*
X0087226Y0118809D01*
X0087257Y0118871D01*
X0087291Y0118931D01*
X0087329Y0118988D01*
X0087370Y0119044D01*
X0087413Y0119097D01*
X0087460Y0119148D01*
X0087509Y0119196D01*
X0087561Y0119241D01*
X0087616Y0119283D01*
X0087672Y0119322D01*
X0087731Y0119359D01*
X0087792Y0119391D01*
X0087854Y0119421D01*
X0087918Y0119447D01*
X0087983Y0119469D01*
X0088049Y0119488D01*
X0088116Y0119503D01*
X0088184Y0119514D01*
X0088253Y0119522D01*
X0088322Y0119526D01*
X0088390Y0119526D01*
X0088459Y0119522D01*
X0088528Y0119514D01*
X0088596Y0119503D01*
X0088663Y0119488D01*
X0088729Y0119469D01*
X0088794Y0119447D01*
X0088858Y0119421D01*
X0088920Y0119391D01*
X0088981Y0119359D01*
X0089040Y0119322D01*
X0089096Y0119283D01*
X0089151Y0119241D01*
X0089203Y0119196D01*
X0089252Y0119148D01*
X0089299Y0119097D01*
X0089342Y0119044D01*
X0089383Y0118988D01*
X0089421Y0118931D01*
X0089455Y0118871D01*
X0089486Y0118809D01*
X0089514Y0118746D01*
X0089538Y0118682D01*
X0089559Y0118616D01*
X0089576Y0118549D01*
X0089589Y0118482D01*
X0089598Y0118414D01*
X0089604Y0118345D01*
X0089606Y0118276D01*
X0089606Y0117026D01*
X0091606Y0117026D02*
X0087106Y0117026D01*
X0088106Y0121301D02*
X0087106Y0122551D01*
X0091606Y0122551D01*
X0091606Y0121301D02*
X0091606Y0123801D01*
X0113484Y0123588D02*
X0113484Y0122088D01*
X0113484Y0123588D02*
X0113486Y0123650D01*
X0113492Y0123711D01*
X0113501Y0123772D01*
X0113514Y0123832D01*
X0113531Y0123891D01*
X0113552Y0123949D01*
X0113576Y0124006D01*
X0113603Y0124061D01*
X0113634Y0124114D01*
X0113668Y0124166D01*
X0113705Y0124215D01*
X0113745Y0124262D01*
X0113788Y0124306D01*
X0113833Y0124347D01*
X0113881Y0124386D01*
X0113932Y0124422D01*
X0113984Y0124454D01*
X0114038Y0124483D01*
X0114094Y0124509D01*
X0114152Y0124531D01*
X0114210Y0124550D01*
X0114270Y0124565D01*
X0114331Y0124576D01*
X0114392Y0124584D01*
X0114453Y0124588D01*
X0114515Y0124588D01*
X0114576Y0124584D01*
X0114637Y0124576D01*
X0114698Y0124565D01*
X0114758Y0124550D01*
X0114816Y0124531D01*
X0114874Y0124509D01*
X0114930Y0124483D01*
X0114984Y0124454D01*
X0115036Y0124422D01*
X0115087Y0124386D01*
X0115135Y0124347D01*
X0115180Y0124306D01*
X0115223Y0124262D01*
X0115263Y0124215D01*
X0115300Y0124166D01*
X0115334Y0124114D01*
X0115365Y0124061D01*
X0115392Y0124006D01*
X0115416Y0123949D01*
X0115437Y0123891D01*
X0115454Y0123832D01*
X0115467Y0123772D01*
X0115476Y0123711D01*
X0115482Y0123650D01*
X0115484Y0123588D01*
X0115484Y0122588D01*
X0115484Y0123338D02*
X0115486Y0123407D01*
X0115492Y0123476D01*
X0115501Y0123544D01*
X0115514Y0123611D01*
X0115531Y0123678D01*
X0115552Y0123744D01*
X0115576Y0123808D01*
X0115604Y0123871D01*
X0115635Y0123933D01*
X0115669Y0123993D01*
X0115707Y0124050D01*
X0115748Y0124106D01*
X0115791Y0124159D01*
X0115838Y0124210D01*
X0115887Y0124258D01*
X0115939Y0124303D01*
X0115994Y0124345D01*
X0116050Y0124384D01*
X0116109Y0124421D01*
X0116170Y0124453D01*
X0116232Y0124483D01*
X0116296Y0124509D01*
X0116361Y0124531D01*
X0116427Y0124550D01*
X0116494Y0124565D01*
X0116562Y0124576D01*
X0116631Y0124584D01*
X0116700Y0124588D01*
X0116768Y0124588D01*
X0116837Y0124584D01*
X0116906Y0124576D01*
X0116974Y0124565D01*
X0117041Y0124550D01*
X0117107Y0124531D01*
X0117172Y0124509D01*
X0117236Y0124483D01*
X0117298Y0124453D01*
X0117359Y0124421D01*
X0117418Y0124384D01*
X0117474Y0124345D01*
X0117529Y0124303D01*
X0117581Y0124258D01*
X0117630Y0124210D01*
X0117677Y0124159D01*
X0117720Y0124106D01*
X0117761Y0124050D01*
X0117799Y0123993D01*
X0117833Y0123933D01*
X0117864Y0123871D01*
X0117892Y0123808D01*
X0117916Y0123744D01*
X0117937Y0123678D01*
X0117954Y0123611D01*
X0117967Y0123544D01*
X0117976Y0123476D01*
X0117982Y0123407D01*
X0117984Y0123338D01*
X0117984Y0122088D01*
X0115984Y0119063D02*
X0115984Y0117813D01*
X0115984Y0119063D02*
X0115982Y0119132D01*
X0115976Y0119201D01*
X0115967Y0119269D01*
X0115954Y0119336D01*
X0115937Y0119403D01*
X0115916Y0119469D01*
X0115892Y0119533D01*
X0115864Y0119596D01*
X0115833Y0119658D01*
X0115799Y0119718D01*
X0115761Y0119775D01*
X0115720Y0119831D01*
X0115677Y0119884D01*
X0115630Y0119935D01*
X0115581Y0119983D01*
X0115529Y0120028D01*
X0115474Y0120070D01*
X0115418Y0120109D01*
X0115359Y0120146D01*
X0115298Y0120178D01*
X0115236Y0120208D01*
X0115172Y0120234D01*
X0115107Y0120256D01*
X0115041Y0120275D01*
X0114974Y0120290D01*
X0114906Y0120301D01*
X0114837Y0120309D01*
X0114768Y0120313D01*
X0114700Y0120313D01*
X0114631Y0120309D01*
X0114562Y0120301D01*
X0114494Y0120290D01*
X0114427Y0120275D01*
X0114361Y0120256D01*
X0114296Y0120234D01*
X0114232Y0120208D01*
X0114170Y0120178D01*
X0114109Y0120146D01*
X0114050Y0120109D01*
X0113994Y0120070D01*
X0113939Y0120028D01*
X0113887Y0119983D01*
X0113838Y0119935D01*
X0113791Y0119884D01*
X0113748Y0119831D01*
X0113707Y0119775D01*
X0113669Y0119718D01*
X0113635Y0119658D01*
X0113604Y0119596D01*
X0113576Y0119533D01*
X0113552Y0119469D01*
X0113531Y0119403D01*
X0113514Y0119336D01*
X0113501Y0119269D01*
X0113492Y0119201D01*
X0113486Y0119132D01*
X0113484Y0119063D01*
X0113484Y0117813D01*
X0117984Y0117813D01*
X0116984Y0115459D02*
X0113484Y0115459D01*
X0116984Y0115459D02*
X0117044Y0115457D01*
X0117105Y0115452D01*
X0117164Y0115443D01*
X0117223Y0115430D01*
X0117282Y0115414D01*
X0117339Y0115394D01*
X0117394Y0115371D01*
X0117449Y0115344D01*
X0117501Y0115315D01*
X0117552Y0115282D01*
X0117601Y0115246D01*
X0117647Y0115208D01*
X0117691Y0115166D01*
X0117733Y0115122D01*
X0117771Y0115076D01*
X0117807Y0115027D01*
X0117840Y0114976D01*
X0117869Y0114924D01*
X0117896Y0114869D01*
X0117919Y0114814D01*
X0117939Y0114757D01*
X0117955Y0114698D01*
X0117968Y0114639D01*
X0117977Y0114580D01*
X0117982Y0114519D01*
X0117984Y0114459D01*
X0117984Y0113959D01*
X0104893Y0054325D02*
X0104893Y0051825D01*
X0104893Y0053075D02*
X0100393Y0053075D01*
X0101393Y0051825D01*
X0103018Y0049500D02*
X0102643Y0048875D01*
X0102268Y0048250D01*
X0104144Y0047875D02*
X0104185Y0047948D01*
X0104224Y0048022D01*
X0104259Y0048099D01*
X0104291Y0048176D01*
X0104320Y0048255D01*
X0104346Y0048335D01*
X0104368Y0048416D01*
X0104386Y0048498D01*
X0104401Y0048581D01*
X0104413Y0048664D01*
X0104421Y0048748D01*
X0104425Y0048832D01*
X0104426Y0048916D01*
X0104423Y0049000D01*
X0104417Y0049084D01*
X0104407Y0049167D01*
X0104394Y0049250D01*
X0104893Y0048875D02*
X0100393Y0048875D01*
X0100893Y0048500D02*
X0100905Y0048448D01*
X0100920Y0048397D01*
X0100938Y0048347D01*
X0100960Y0048299D01*
X0100986Y0048252D01*
X0101015Y0048207D01*
X0101047Y0048165D01*
X0101082Y0048125D01*
X0101119Y0048087D01*
X0101159Y0048052D01*
X0101202Y0048020D01*
X0101247Y0047992D01*
X0101293Y0047966D01*
X0101342Y0047944D01*
X0101391Y0047925D01*
X0101442Y0047910D01*
X0101494Y0047899D01*
X0101547Y0047891D01*
X0101600Y0047888D01*
X0101653Y0047887D01*
X0101706Y0047891D01*
X0101759Y0047899D01*
X0101811Y0047910D01*
X0101862Y0047925D01*
X0101912Y0047943D01*
X0101960Y0047965D01*
X0102007Y0047990D01*
X0102052Y0048019D01*
X0102094Y0048051D01*
X0102135Y0048085D01*
X0102173Y0048123D01*
X0102208Y0048163D01*
X0102240Y0048205D01*
X0102269Y0048250D01*
X0100893Y0048500D02*
X0100880Y0048583D01*
X0100870Y0048666D01*
X0100864Y0048750D01*
X0100861Y0048834D01*
X0100862Y0048918D01*
X0100866Y0049002D01*
X0100874Y0049086D01*
X0100886Y0049169D01*
X0100901Y0049252D01*
X0100919Y0049334D01*
X0100941Y0049415D01*
X0100967Y0049495D01*
X0100996Y0049574D01*
X0101028Y0049651D01*
X0101063Y0049728D01*
X0101102Y0049802D01*
X0101143Y0049875D01*
X0103018Y0049500D02*
X0103047Y0049545D01*
X0103079Y0049587D01*
X0103114Y0049627D01*
X0103152Y0049665D01*
X0103193Y0049699D01*
X0103235Y0049731D01*
X0103280Y0049760D01*
X0103327Y0049785D01*
X0103375Y0049807D01*
X0103425Y0049825D01*
X0103476Y0049840D01*
X0103528Y0049851D01*
X0103581Y0049859D01*
X0103634Y0049863D01*
X0103687Y0049862D01*
X0103740Y0049859D01*
X0103793Y0049851D01*
X0103845Y0049840D01*
X0103896Y0049825D01*
X0103945Y0049806D01*
X0103994Y0049784D01*
X0104040Y0049758D01*
X0104085Y0049730D01*
X0104128Y0049698D01*
X0104168Y0049663D01*
X0104205Y0049625D01*
X0104240Y0049585D01*
X0104272Y0049543D01*
X0104301Y0049498D01*
X0104327Y0049451D01*
X0104349Y0049403D01*
X0104367Y0049353D01*
X0104382Y0049302D01*
X0104394Y0049250D01*
X0103643Y0045775D02*
X0100393Y0045775D01*
X0100393Y0043275D02*
X0103643Y0043275D01*
X0103712Y0043277D01*
X0103781Y0043283D01*
X0103849Y0043292D01*
X0103916Y0043305D01*
X0103983Y0043322D01*
X0104049Y0043343D01*
X0104113Y0043367D01*
X0104176Y0043395D01*
X0104238Y0043426D01*
X0104298Y0043460D01*
X0104355Y0043498D01*
X0104411Y0043539D01*
X0104464Y0043582D01*
X0104515Y0043629D01*
X0104563Y0043678D01*
X0104608Y0043730D01*
X0104650Y0043785D01*
X0104689Y0043841D01*
X0104726Y0043900D01*
X0104758Y0043961D01*
X0104788Y0044023D01*
X0104814Y0044087D01*
X0104836Y0044152D01*
X0104855Y0044218D01*
X0104870Y0044285D01*
X0104881Y0044353D01*
X0104889Y0044422D01*
X0104893Y0044491D01*
X0104893Y0044559D01*
X0104889Y0044628D01*
X0104881Y0044697D01*
X0104870Y0044765D01*
X0104855Y0044832D01*
X0104836Y0044898D01*
X0104814Y0044963D01*
X0104788Y0045027D01*
X0104758Y0045089D01*
X0104726Y0045150D01*
X0104689Y0045209D01*
X0104650Y0045265D01*
X0104608Y0045320D01*
X0104563Y0045372D01*
X0104515Y0045421D01*
X0104464Y0045468D01*
X0104411Y0045511D01*
X0104355Y0045552D01*
X0104298Y0045590D01*
X0104238Y0045624D01*
X0104176Y0045655D01*
X0104113Y0045683D01*
X0104049Y0045707D01*
X0103983Y0045728D01*
X0103916Y0045745D01*
X0103849Y0045758D01*
X0103781Y0045767D01*
X0103712Y0045773D01*
X0103643Y0045775D01*
X0103694Y0009487D02*
X0104944Y0009487D01*
X0105013Y0009485D01*
X0105082Y0009479D01*
X0105150Y0009470D01*
X0105217Y0009457D01*
X0105284Y0009440D01*
X0105350Y0009419D01*
X0105414Y0009395D01*
X0105477Y0009367D01*
X0105539Y0009336D01*
X0105599Y0009302D01*
X0105656Y0009264D01*
X0105712Y0009223D01*
X0105765Y0009180D01*
X0105816Y0009133D01*
X0105864Y0009084D01*
X0105909Y0009032D01*
X0105951Y0008977D01*
X0105990Y0008921D01*
X0106027Y0008862D01*
X0106059Y0008801D01*
X0106089Y0008739D01*
X0106115Y0008675D01*
X0106137Y0008610D01*
X0106156Y0008544D01*
X0106171Y0008477D01*
X0106182Y0008409D01*
X0106190Y0008340D01*
X0106194Y0008271D01*
X0106194Y0008203D01*
X0106190Y0008134D01*
X0106182Y0008065D01*
X0106171Y0007997D01*
X0106156Y0007930D01*
X0106137Y0007864D01*
X0106115Y0007799D01*
X0106089Y0007735D01*
X0106059Y0007673D01*
X0106027Y0007612D01*
X0105990Y0007553D01*
X0105951Y0007497D01*
X0105909Y0007442D01*
X0105864Y0007390D01*
X0105816Y0007341D01*
X0105765Y0007294D01*
X0105712Y0007251D01*
X0105656Y0007210D01*
X0105599Y0007172D01*
X0105539Y0007138D01*
X0105477Y0007107D01*
X0105414Y0007079D01*
X0105350Y0007055D01*
X0105284Y0007034D01*
X0105217Y0007017D01*
X0105150Y0007004D01*
X0105082Y0006995D01*
X0105013Y0006989D01*
X0104944Y0006987D01*
X0103694Y0006987D01*
X0103694Y0004987D02*
X0103694Y0009487D01*
X0101339Y0009487D02*
X0101339Y0005987D01*
X0101337Y0005927D01*
X0101332Y0005866D01*
X0101323Y0005807D01*
X0101310Y0005748D01*
X0101294Y0005689D01*
X0101274Y0005632D01*
X0101251Y0005577D01*
X0101224Y0005522D01*
X0101195Y0005470D01*
X0101162Y0005419D01*
X0101126Y0005370D01*
X0101088Y0005324D01*
X0101046Y0005280D01*
X0101002Y0005238D01*
X0100956Y0005200D01*
X0100907Y0005164D01*
X0100856Y0005131D01*
X0100804Y0005102D01*
X0100749Y0005075D01*
X0100694Y0005052D01*
X0100637Y0005032D01*
X0100578Y0005016D01*
X0100519Y0005003D01*
X0100460Y0004994D01*
X0100399Y0004989D01*
X0100339Y0004987D01*
X0099839Y0004987D01*
X0107969Y0004987D02*
X0110469Y0004987D01*
X0107969Y0004987D02*
X0110094Y0007487D01*
X0109344Y0009487D02*
X0109271Y0009485D01*
X0109199Y0009480D01*
X0109127Y0009471D01*
X0109055Y0009458D01*
X0108984Y0009442D01*
X0108914Y0009422D01*
X0108846Y0009398D01*
X0108778Y0009372D01*
X0108712Y0009341D01*
X0108647Y0009308D01*
X0108585Y0009271D01*
X0108524Y0009232D01*
X0108465Y0009189D01*
X0108408Y0009143D01*
X0108354Y0009095D01*
X0108303Y0009044D01*
X0108253Y0008990D01*
X0108207Y0008934D01*
X0108164Y0008876D01*
X0108123Y0008815D01*
X0108086Y0008753D01*
X0108052Y0008689D01*
X0108021Y0008623D01*
X0107993Y0008556D01*
X0107969Y0008487D01*
X0110094Y0007487D02*
X0110140Y0007533D01*
X0110184Y0007582D01*
X0110224Y0007633D01*
X0110262Y0007686D01*
X0110297Y0007741D01*
X0110329Y0007798D01*
X0110358Y0007856D01*
X0110384Y0007916D01*
X0110406Y0007978D01*
X0110425Y0008040D01*
X0110441Y0008103D01*
X0110453Y0008167D01*
X0110462Y0008232D01*
X0110467Y0008297D01*
X0110469Y0008362D01*
X0110467Y0008427D01*
X0110461Y0008493D01*
X0110452Y0008557D01*
X0110439Y0008621D01*
X0110422Y0008685D01*
X0110401Y0008747D01*
X0110377Y0008808D01*
X0110349Y0008867D01*
X0110318Y0008925D01*
X0110284Y0008980D01*
X0110246Y0009034D01*
X0110206Y0009085D01*
X0110162Y0009134D01*
X0110116Y0009180D01*
X0110067Y0009224D01*
X0110016Y0009264D01*
X0109962Y0009302D01*
X0109907Y0009336D01*
X0109849Y0009367D01*
X0109790Y0009395D01*
X0109729Y0009419D01*
X0109667Y0009440D01*
X0109603Y0009457D01*
X0109539Y0009470D01*
X0109475Y0009479D01*
X0109409Y0009485D01*
X0109344Y0009487D01*
X0050990Y0037232D02*
X0041289Y0037232D01*
X0041289Y0054831D02*
X0050990Y0054831D01*
D12*
X0041558Y0014539D02*
X0039514Y0014539D01*
X0039514Y0019139D01*
X0043414Y0019139D02*
X0043414Y0014539D01*
X0045458Y0014539D01*
X0047305Y0014539D02*
X0048582Y0014539D01*
X0047305Y0014539D02*
X0047305Y0019139D01*
X0048582Y0019139D01*
X0048651Y0019137D01*
X0048720Y0019132D01*
X0048789Y0019122D01*
X0048857Y0019109D01*
X0048924Y0019092D01*
X0048990Y0019072D01*
X0049055Y0019048D01*
X0049119Y0019021D01*
X0049181Y0018990D01*
X0049241Y0018956D01*
X0049299Y0018919D01*
X0049355Y0018878D01*
X0049409Y0018835D01*
X0049461Y0018789D01*
X0049510Y0018740D01*
X0049556Y0018688D01*
X0049599Y0018634D01*
X0049640Y0018578D01*
X0049677Y0018520D01*
X0049711Y0018460D01*
X0049742Y0018398D01*
X0049769Y0018334D01*
X0049793Y0018269D01*
X0049813Y0018203D01*
X0049830Y0018136D01*
X0049843Y0018068D01*
X0049853Y0017999D01*
X0049858Y0017930D01*
X0049860Y0017861D01*
X0049860Y0015816D01*
X0049858Y0015747D01*
X0049853Y0015678D01*
X0049843Y0015609D01*
X0049830Y0015541D01*
X0049813Y0015474D01*
X0049793Y0015408D01*
X0049769Y0015343D01*
X0049742Y0015279D01*
X0049711Y0015217D01*
X0049677Y0015157D01*
X0049640Y0015099D01*
X0049599Y0015043D01*
X0049556Y0014989D01*
X0049510Y0014937D01*
X0049461Y0014888D01*
X0049409Y0014842D01*
X0049355Y0014799D01*
X0049299Y0014758D01*
X0049241Y0014721D01*
X0049181Y0014687D01*
X0049119Y0014656D01*
X0049055Y0014629D01*
X0048990Y0014605D01*
X0048924Y0014585D01*
X0048857Y0014568D01*
X0048789Y0014555D01*
X0048720Y0014545D01*
X0048651Y0014540D01*
X0048582Y0014538D01*
X0051955Y0014539D02*
X0054510Y0014539D01*
X0053232Y0014539D02*
X0053232Y0019139D01*
X0051955Y0018116D01*
X0051262Y0022413D02*
X0048707Y0022413D01*
X0049984Y0022413D02*
X0049984Y0027013D01*
X0048707Y0025990D01*
X0045513Y0027013D02*
X0045583Y0027011D01*
X0045654Y0027005D01*
X0045723Y0026996D01*
X0045792Y0026982D01*
X0045861Y0026965D01*
X0045928Y0026944D01*
X0045994Y0026919D01*
X0046058Y0026891D01*
X0046121Y0026859D01*
X0046182Y0026824D01*
X0046241Y0026785D01*
X0046298Y0026744D01*
X0046352Y0026699D01*
X0046404Y0026651D01*
X0046453Y0026601D01*
X0046500Y0026547D01*
X0046543Y0026492D01*
X0046583Y0026434D01*
X0046620Y0026374D01*
X0046653Y0026312D01*
X0046683Y0026248D01*
X0046710Y0026183D01*
X0046733Y0026117D01*
X0046752Y0026049D01*
X0046767Y0025980D01*
X0046779Y0025911D01*
X0046787Y0025841D01*
X0046791Y0025770D01*
X0046791Y0025700D01*
X0046787Y0025629D01*
X0046779Y0025559D01*
X0046767Y0025490D01*
X0046752Y0025421D01*
X0046733Y0025353D01*
X0046710Y0025287D01*
X0046683Y0025222D01*
X0046653Y0025158D01*
X0046620Y0025096D01*
X0046583Y0025036D01*
X0046543Y0024978D01*
X0046500Y0024923D01*
X0046453Y0024869D01*
X0046404Y0024819D01*
X0046352Y0024771D01*
X0046298Y0024726D01*
X0046241Y0024685D01*
X0046182Y0024646D01*
X0046121Y0024611D01*
X0046058Y0024579D01*
X0045994Y0024551D01*
X0045928Y0024526D01*
X0045861Y0024505D01*
X0045792Y0024488D01*
X0045723Y0024474D01*
X0045654Y0024465D01*
X0045583Y0024459D01*
X0045513Y0024457D01*
X0044236Y0024457D01*
X0045769Y0024457D02*
X0046791Y0022413D01*
X0044236Y0022413D02*
X0044236Y0027013D01*
X0045513Y0027013D01*
X0045827Y0030326D02*
X0044804Y0030326D01*
X0044742Y0030328D01*
X0044681Y0030333D01*
X0044620Y0030343D01*
X0044559Y0030356D01*
X0044500Y0030372D01*
X0044442Y0030392D01*
X0044385Y0030416D01*
X0044329Y0030443D01*
X0044275Y0030473D01*
X0044223Y0030507D01*
X0044174Y0030543D01*
X0044126Y0030583D01*
X0044081Y0030625D01*
X0044039Y0030670D01*
X0043999Y0030718D01*
X0043963Y0030767D01*
X0043929Y0030819D01*
X0043899Y0030873D01*
X0043872Y0030929D01*
X0043848Y0030986D01*
X0043828Y0031044D01*
X0043812Y0031103D01*
X0043799Y0031164D01*
X0043789Y0031225D01*
X0043784Y0031286D01*
X0043782Y0031348D01*
X0043782Y0033904D01*
X0043784Y0033966D01*
X0043789Y0034027D01*
X0043799Y0034088D01*
X0043812Y0034149D01*
X0043828Y0034208D01*
X0043848Y0034266D01*
X0043872Y0034323D01*
X0043899Y0034379D01*
X0043929Y0034433D01*
X0043963Y0034485D01*
X0043999Y0034534D01*
X0044039Y0034582D01*
X0044081Y0034627D01*
X0044126Y0034669D01*
X0044174Y0034708D01*
X0044223Y0034745D01*
X0044275Y0034779D01*
X0044329Y0034809D01*
X0044385Y0034836D01*
X0044442Y0034860D01*
X0044500Y0034880D01*
X0044559Y0034896D01*
X0044620Y0034909D01*
X0044681Y0034919D01*
X0044742Y0034924D01*
X0044804Y0034926D01*
X0045827Y0034926D01*
X0047545Y0034926D02*
X0050101Y0034926D01*
X0048823Y0030326D01*
X0047545Y0034415D02*
X0047545Y0034926D01*
X0046677Y0039775D02*
X0043355Y0039775D01*
X0043355Y0042330D02*
X0046677Y0042330D01*
X0046677Y0042331D02*
X0046747Y0042329D01*
X0046818Y0042323D01*
X0046887Y0042314D01*
X0046956Y0042300D01*
X0047025Y0042283D01*
X0047092Y0042262D01*
X0047158Y0042237D01*
X0047222Y0042209D01*
X0047285Y0042177D01*
X0047346Y0042142D01*
X0047405Y0042103D01*
X0047462Y0042062D01*
X0047516Y0042017D01*
X0047568Y0041969D01*
X0047617Y0041919D01*
X0047664Y0041865D01*
X0047707Y0041810D01*
X0047747Y0041752D01*
X0047784Y0041692D01*
X0047817Y0041630D01*
X0047847Y0041566D01*
X0047874Y0041501D01*
X0047897Y0041435D01*
X0047916Y0041367D01*
X0047931Y0041298D01*
X0047943Y0041229D01*
X0047951Y0041159D01*
X0047955Y0041088D01*
X0047955Y0041018D01*
X0047951Y0040947D01*
X0047943Y0040877D01*
X0047931Y0040808D01*
X0047916Y0040739D01*
X0047897Y0040671D01*
X0047874Y0040605D01*
X0047847Y0040540D01*
X0047817Y0040476D01*
X0047784Y0040414D01*
X0047747Y0040354D01*
X0047707Y0040296D01*
X0047664Y0040241D01*
X0047617Y0040187D01*
X0047568Y0040137D01*
X0047516Y0040089D01*
X0047462Y0040044D01*
X0047405Y0040003D01*
X0047346Y0039964D01*
X0047285Y0039929D01*
X0047222Y0039897D01*
X0047158Y0039869D01*
X0047092Y0039844D01*
X0047025Y0039823D01*
X0046956Y0039806D01*
X0046887Y0039792D01*
X0046818Y0039783D01*
X0046747Y0039777D01*
X0046677Y0039775D01*
X0045272Y0044764D02*
X0045655Y0045403D01*
X0046038Y0046041D01*
X0044122Y0046425D02*
X0044079Y0046350D01*
X0044040Y0046274D01*
X0044003Y0046196D01*
X0043971Y0046117D01*
X0043941Y0046036D01*
X0043915Y0045954D01*
X0043893Y0045871D01*
X0043874Y0045787D01*
X0043858Y0045703D01*
X0043847Y0045618D01*
X0043839Y0045532D01*
X0043834Y0045447D01*
X0043833Y0045361D01*
X0043836Y0045275D01*
X0043842Y0045189D01*
X0043852Y0045104D01*
X0043866Y0045019D01*
X0043355Y0045403D02*
X0047955Y0045403D01*
X0047444Y0045786D02*
X0047432Y0045839D01*
X0047417Y0045891D01*
X0047397Y0045942D01*
X0047375Y0045991D01*
X0047349Y0046039D01*
X0047319Y0046085D01*
X0047287Y0046128D01*
X0047251Y0046169D01*
X0047213Y0046208D01*
X0047172Y0046243D01*
X0047128Y0046276D01*
X0047083Y0046305D01*
X0047035Y0046331D01*
X0046986Y0046354D01*
X0046935Y0046373D01*
X0046883Y0046388D01*
X0046829Y0046400D01*
X0046776Y0046407D01*
X0046722Y0046411D01*
X0046667Y0046412D01*
X0046613Y0046408D01*
X0046559Y0046400D01*
X0046506Y0046389D01*
X0046454Y0046374D01*
X0046403Y0046355D01*
X0046354Y0046332D01*
X0046306Y0046307D01*
X0046260Y0046277D01*
X0046217Y0046245D01*
X0046175Y0046210D01*
X0046137Y0046171D01*
X0046101Y0046130D01*
X0046068Y0046087D01*
X0046039Y0046042D01*
X0047444Y0045786D02*
X0047458Y0045701D01*
X0047468Y0045616D01*
X0047474Y0045530D01*
X0047477Y0045444D01*
X0047476Y0045358D01*
X0047471Y0045273D01*
X0047463Y0045187D01*
X0047452Y0045102D01*
X0047436Y0045018D01*
X0047417Y0044934D01*
X0047395Y0044851D01*
X0047369Y0044769D01*
X0047339Y0044688D01*
X0047307Y0044609D01*
X0047270Y0044531D01*
X0047231Y0044455D01*
X0047188Y0044380D01*
X0045271Y0044763D02*
X0045242Y0044718D01*
X0045209Y0044675D01*
X0045173Y0044634D01*
X0045135Y0044595D01*
X0045093Y0044560D01*
X0045050Y0044528D01*
X0045004Y0044498D01*
X0044956Y0044473D01*
X0044907Y0044450D01*
X0044856Y0044431D01*
X0044804Y0044416D01*
X0044751Y0044405D01*
X0044697Y0044397D01*
X0044643Y0044393D01*
X0044588Y0044394D01*
X0044534Y0044397D01*
X0044481Y0044405D01*
X0044427Y0044417D01*
X0044375Y0044432D01*
X0044325Y0044451D01*
X0044275Y0044474D01*
X0044227Y0044500D01*
X0044182Y0044529D01*
X0044138Y0044562D01*
X0044097Y0044597D01*
X0044059Y0044636D01*
X0044023Y0044677D01*
X0043991Y0044720D01*
X0043961Y0044766D01*
X0043935Y0044814D01*
X0043913Y0044863D01*
X0043893Y0044914D01*
X0043878Y0044966D01*
X0043866Y0045019D01*
X0043355Y0048325D02*
X0043355Y0049858D01*
X0043357Y0049921D01*
X0043363Y0049984D01*
X0043372Y0050046D01*
X0043386Y0050107D01*
X0043403Y0050168D01*
X0043424Y0050227D01*
X0043449Y0050285D01*
X0043477Y0050342D01*
X0043508Y0050396D01*
X0043543Y0050448D01*
X0043581Y0050499D01*
X0043622Y0050547D01*
X0043666Y0050592D01*
X0043712Y0050634D01*
X0043761Y0050674D01*
X0043812Y0050710D01*
X0043866Y0050743D01*
X0043921Y0050773D01*
X0043979Y0050799D01*
X0044037Y0050822D01*
X0044097Y0050841D01*
X0044158Y0050856D01*
X0044220Y0050868D01*
X0044283Y0050876D01*
X0044346Y0050880D01*
X0044408Y0050880D01*
X0044471Y0050876D01*
X0044534Y0050868D01*
X0044596Y0050856D01*
X0044657Y0050841D01*
X0044717Y0050822D01*
X0044775Y0050799D01*
X0044833Y0050773D01*
X0044888Y0050743D01*
X0044942Y0050710D01*
X0044993Y0050674D01*
X0045042Y0050634D01*
X0045088Y0050592D01*
X0045132Y0050547D01*
X0045173Y0050499D01*
X0045211Y0050448D01*
X0045246Y0050396D01*
X0045277Y0050342D01*
X0045305Y0050285D01*
X0045330Y0050227D01*
X0045351Y0050168D01*
X0045368Y0050107D01*
X0045382Y0050046D01*
X0045391Y0049984D01*
X0045397Y0049921D01*
X0045399Y0049858D01*
X0045400Y0049858D02*
X0045400Y0048836D01*
X0045399Y0049603D02*
X0045401Y0049673D01*
X0045407Y0049744D01*
X0045416Y0049813D01*
X0045430Y0049882D01*
X0045447Y0049951D01*
X0045468Y0050018D01*
X0045493Y0050084D01*
X0045521Y0050148D01*
X0045553Y0050211D01*
X0045588Y0050272D01*
X0045627Y0050331D01*
X0045668Y0050388D01*
X0045713Y0050442D01*
X0045761Y0050494D01*
X0045811Y0050543D01*
X0045865Y0050590D01*
X0045920Y0050633D01*
X0045978Y0050673D01*
X0046038Y0050710D01*
X0046100Y0050743D01*
X0046164Y0050773D01*
X0046229Y0050800D01*
X0046295Y0050823D01*
X0046363Y0050842D01*
X0046432Y0050857D01*
X0046501Y0050869D01*
X0046571Y0050877D01*
X0046642Y0050881D01*
X0046712Y0050881D01*
X0046783Y0050877D01*
X0046853Y0050869D01*
X0046922Y0050857D01*
X0046991Y0050842D01*
X0047059Y0050823D01*
X0047125Y0050800D01*
X0047190Y0050773D01*
X0047254Y0050743D01*
X0047316Y0050710D01*
X0047376Y0050673D01*
X0047434Y0050633D01*
X0047489Y0050590D01*
X0047543Y0050543D01*
X0047593Y0050494D01*
X0047641Y0050442D01*
X0047686Y0050388D01*
X0047727Y0050331D01*
X0047766Y0050272D01*
X0047801Y0050211D01*
X0047833Y0050148D01*
X0047861Y0050084D01*
X0047886Y0050018D01*
X0047907Y0049951D01*
X0047924Y0049882D01*
X0047938Y0049813D01*
X0047947Y0049744D01*
X0047953Y0049673D01*
X0047955Y0049603D01*
X0047955Y0048325D01*
X0045827Y0057491D02*
X0044804Y0057491D01*
X0044804Y0057492D02*
X0044742Y0057494D01*
X0044681Y0057499D01*
X0044620Y0057509D01*
X0044559Y0057522D01*
X0044500Y0057538D01*
X0044442Y0057558D01*
X0044385Y0057582D01*
X0044329Y0057609D01*
X0044275Y0057639D01*
X0044223Y0057673D01*
X0044174Y0057709D01*
X0044126Y0057749D01*
X0044081Y0057791D01*
X0044039Y0057836D01*
X0043999Y0057884D01*
X0043963Y0057933D01*
X0043929Y0057985D01*
X0043899Y0058039D01*
X0043872Y0058095D01*
X0043848Y0058152D01*
X0043828Y0058210D01*
X0043812Y0058269D01*
X0043799Y0058330D01*
X0043789Y0058391D01*
X0043784Y0058452D01*
X0043782Y0058514D01*
X0043782Y0061069D01*
X0043784Y0061131D01*
X0043789Y0061192D01*
X0043799Y0061253D01*
X0043812Y0061314D01*
X0043828Y0061373D01*
X0043848Y0061431D01*
X0043872Y0061488D01*
X0043899Y0061544D01*
X0043929Y0061598D01*
X0043963Y0061650D01*
X0043999Y0061699D01*
X0044039Y0061747D01*
X0044081Y0061792D01*
X0044126Y0061834D01*
X0044174Y0061873D01*
X0044223Y0061910D01*
X0044275Y0061944D01*
X0044329Y0061974D01*
X0044385Y0062001D01*
X0044442Y0062025D01*
X0044500Y0062045D01*
X0044559Y0062061D01*
X0044620Y0062074D01*
X0044681Y0062084D01*
X0044742Y0062089D01*
X0044804Y0062091D01*
X0045827Y0062091D01*
X0047545Y0060047D02*
X0047545Y0058769D01*
X0047545Y0060047D02*
X0049079Y0060047D01*
X0047546Y0060047D02*
X0047548Y0060136D01*
X0047554Y0060225D01*
X0047563Y0060314D01*
X0047577Y0060402D01*
X0047594Y0060489D01*
X0047616Y0060576D01*
X0047641Y0060662D01*
X0047669Y0060746D01*
X0047702Y0060829D01*
X0047738Y0060911D01*
X0047777Y0060991D01*
X0047820Y0061069D01*
X0047866Y0061145D01*
X0047916Y0061219D01*
X0047968Y0061291D01*
X0048024Y0061361D01*
X0048083Y0061428D01*
X0048145Y0061492D01*
X0048209Y0061554D01*
X0048276Y0061613D01*
X0048346Y0061669D01*
X0048418Y0061721D01*
X0048492Y0061771D01*
X0048568Y0061817D01*
X0048646Y0061860D01*
X0048726Y0061899D01*
X0048808Y0061935D01*
X0048891Y0061968D01*
X0048975Y0061996D01*
X0049061Y0062021D01*
X0049148Y0062043D01*
X0049235Y0062060D01*
X0049323Y0062074D01*
X0049412Y0062083D01*
X0049501Y0062089D01*
X0049590Y0062091D01*
X0050101Y0059025D02*
X0050101Y0058769D01*
X0050101Y0059025D02*
X0050099Y0059087D01*
X0050094Y0059148D01*
X0050084Y0059209D01*
X0050071Y0059270D01*
X0050055Y0059329D01*
X0050035Y0059387D01*
X0050011Y0059444D01*
X0049984Y0059500D01*
X0049954Y0059554D01*
X0049920Y0059606D01*
X0049884Y0059655D01*
X0049844Y0059703D01*
X0049802Y0059748D01*
X0049757Y0059790D01*
X0049709Y0059830D01*
X0049660Y0059866D01*
X0049608Y0059900D01*
X0049554Y0059930D01*
X0049498Y0059957D01*
X0049441Y0059981D01*
X0049383Y0060001D01*
X0049324Y0060017D01*
X0049263Y0060030D01*
X0049202Y0060040D01*
X0049141Y0060045D01*
X0049079Y0060047D01*
X0050101Y0058769D02*
X0050099Y0058699D01*
X0050093Y0058628D01*
X0050084Y0058559D01*
X0050070Y0058490D01*
X0050053Y0058421D01*
X0050032Y0058354D01*
X0050007Y0058288D01*
X0049979Y0058224D01*
X0049947Y0058161D01*
X0049912Y0058100D01*
X0049873Y0058041D01*
X0049832Y0057984D01*
X0049787Y0057930D01*
X0049739Y0057878D01*
X0049689Y0057829D01*
X0049635Y0057782D01*
X0049580Y0057739D01*
X0049522Y0057699D01*
X0049462Y0057662D01*
X0049400Y0057629D01*
X0049336Y0057599D01*
X0049271Y0057572D01*
X0049205Y0057549D01*
X0049137Y0057530D01*
X0049068Y0057515D01*
X0048999Y0057503D01*
X0048929Y0057495D01*
X0048858Y0057491D01*
X0048788Y0057491D01*
X0048717Y0057495D01*
X0048647Y0057503D01*
X0048578Y0057515D01*
X0048509Y0057530D01*
X0048441Y0057549D01*
X0048375Y0057572D01*
X0048310Y0057599D01*
X0048246Y0057629D01*
X0048184Y0057662D01*
X0048124Y0057699D01*
X0048066Y0057739D01*
X0048011Y0057782D01*
X0047957Y0057829D01*
X0047907Y0057878D01*
X0047859Y0057930D01*
X0047814Y0057984D01*
X0047773Y0058041D01*
X0047734Y0058100D01*
X0047699Y0058161D01*
X0047667Y0058224D01*
X0047639Y0058288D01*
X0047614Y0058354D01*
X0047593Y0058421D01*
X0047576Y0058490D01*
X0047562Y0058559D01*
X0047553Y0058628D01*
X0047547Y0058699D01*
X0047545Y0058769D01*
X0047901Y0071035D02*
X0048923Y0071035D01*
X0047901Y0071035D02*
X0047839Y0071037D01*
X0047778Y0071042D01*
X0047717Y0071052D01*
X0047656Y0071065D01*
X0047597Y0071081D01*
X0047539Y0071101D01*
X0047482Y0071125D01*
X0047426Y0071152D01*
X0047372Y0071182D01*
X0047320Y0071216D01*
X0047271Y0071252D01*
X0047223Y0071292D01*
X0047178Y0071334D01*
X0047136Y0071379D01*
X0047096Y0071427D01*
X0047060Y0071476D01*
X0047026Y0071528D01*
X0046996Y0071582D01*
X0046969Y0071638D01*
X0046945Y0071695D01*
X0046925Y0071753D01*
X0046909Y0071812D01*
X0046896Y0071873D01*
X0046886Y0071934D01*
X0046881Y0071995D01*
X0046879Y0072057D01*
X0046879Y0074612D01*
X0046881Y0074674D01*
X0046886Y0074735D01*
X0046896Y0074796D01*
X0046909Y0074857D01*
X0046925Y0074916D01*
X0046945Y0074974D01*
X0046969Y0075031D01*
X0046996Y0075087D01*
X0047026Y0075141D01*
X0047060Y0075193D01*
X0047096Y0075242D01*
X0047136Y0075290D01*
X0047178Y0075335D01*
X0047223Y0075377D01*
X0047271Y0075416D01*
X0047320Y0075453D01*
X0047372Y0075487D01*
X0047426Y0075517D01*
X0047482Y0075544D01*
X0047539Y0075568D01*
X0047597Y0075588D01*
X0047656Y0075604D01*
X0047717Y0075617D01*
X0047778Y0075627D01*
X0047839Y0075632D01*
X0047901Y0075634D01*
X0047901Y0075635D02*
X0048923Y0075635D01*
X0051664Y0075635D02*
X0050642Y0072057D01*
X0053197Y0072057D01*
X0052431Y0073079D02*
X0052431Y0071035D01*
X0051944Y0084558D02*
X0054500Y0084558D01*
X0051944Y0084558D02*
X0054117Y0087114D01*
X0053350Y0089158D02*
X0053276Y0089156D01*
X0053202Y0089151D01*
X0053128Y0089141D01*
X0053055Y0089128D01*
X0052982Y0089112D01*
X0052911Y0089091D01*
X0052841Y0089067D01*
X0052772Y0089040D01*
X0052704Y0089009D01*
X0052638Y0088975D01*
X0052574Y0088938D01*
X0052512Y0088897D01*
X0052452Y0088853D01*
X0052394Y0088807D01*
X0052338Y0088757D01*
X0052285Y0088705D01*
X0052235Y0088650D01*
X0052188Y0088593D01*
X0052144Y0088533D01*
X0052102Y0088471D01*
X0052064Y0088408D01*
X0052029Y0088342D01*
X0051998Y0088275D01*
X0051970Y0088206D01*
X0051945Y0088136D01*
X0054117Y0087114D02*
X0054164Y0087161D01*
X0054208Y0087211D01*
X0054250Y0087263D01*
X0054289Y0087317D01*
X0054324Y0087373D01*
X0054357Y0087431D01*
X0054387Y0087491D01*
X0054413Y0087552D01*
X0054436Y0087615D01*
X0054455Y0087679D01*
X0054471Y0087743D01*
X0054484Y0087809D01*
X0054493Y0087875D01*
X0054498Y0087941D01*
X0054500Y0088008D01*
X0054498Y0088075D01*
X0054492Y0088142D01*
X0054483Y0088208D01*
X0054469Y0088273D01*
X0054452Y0088338D01*
X0054431Y0088401D01*
X0054406Y0088463D01*
X0054378Y0088524D01*
X0054346Y0088583D01*
X0054311Y0088640D01*
X0054272Y0088695D01*
X0054231Y0088747D01*
X0054186Y0088797D01*
X0054139Y0088844D01*
X0054089Y0088889D01*
X0054037Y0088930D01*
X0053982Y0088969D01*
X0053925Y0089004D01*
X0053866Y0089036D01*
X0053805Y0089064D01*
X0053743Y0089089D01*
X0053680Y0089110D01*
X0053615Y0089127D01*
X0053550Y0089141D01*
X0053484Y0089150D01*
X0053417Y0089156D01*
X0053350Y0089158D01*
X0049022Y0089158D02*
X0049022Y0084558D01*
X0049405Y0085069D02*
X0049458Y0085081D01*
X0049510Y0085096D01*
X0049561Y0085116D01*
X0049610Y0085138D01*
X0049658Y0085164D01*
X0049704Y0085194D01*
X0049747Y0085226D01*
X0049788Y0085262D01*
X0049827Y0085300D01*
X0049862Y0085341D01*
X0049895Y0085385D01*
X0049924Y0085430D01*
X0049950Y0085478D01*
X0049973Y0085528D01*
X0049992Y0085578D01*
X0050007Y0085630D01*
X0050019Y0085684D01*
X0050026Y0085737D01*
X0050030Y0085791D01*
X0050031Y0085846D01*
X0050027Y0085900D01*
X0050019Y0085954D01*
X0050008Y0086007D01*
X0049993Y0086059D01*
X0049974Y0086110D01*
X0049951Y0086159D01*
X0049926Y0086207D01*
X0049896Y0086253D01*
X0049864Y0086296D01*
X0049829Y0086338D01*
X0049790Y0086376D01*
X0049749Y0086412D01*
X0049706Y0086445D01*
X0049661Y0086474D01*
X0049661Y0086475D02*
X0049022Y0086858D01*
X0048383Y0087242D01*
X0048000Y0085325D02*
X0048075Y0085282D01*
X0048151Y0085243D01*
X0048229Y0085206D01*
X0048308Y0085174D01*
X0048389Y0085144D01*
X0048471Y0085118D01*
X0048554Y0085096D01*
X0048638Y0085077D01*
X0048722Y0085061D01*
X0048807Y0085050D01*
X0048893Y0085042D01*
X0048978Y0085037D01*
X0049064Y0085036D01*
X0049150Y0085039D01*
X0049236Y0085045D01*
X0049321Y0085055D01*
X0049406Y0085069D01*
X0050045Y0088391D02*
X0049970Y0088434D01*
X0049894Y0088473D01*
X0049816Y0088510D01*
X0049737Y0088542D01*
X0049656Y0088572D01*
X0049574Y0088598D01*
X0049491Y0088620D01*
X0049407Y0088639D01*
X0049323Y0088655D01*
X0049238Y0088666D01*
X0049152Y0088674D01*
X0049067Y0088679D01*
X0048981Y0088680D01*
X0048895Y0088677D01*
X0048809Y0088671D01*
X0048724Y0088661D01*
X0048639Y0088647D01*
X0048586Y0088635D01*
X0048534Y0088620D01*
X0048483Y0088600D01*
X0048434Y0088578D01*
X0048386Y0088552D01*
X0048340Y0088522D01*
X0048297Y0088490D01*
X0048256Y0088454D01*
X0048217Y0088416D01*
X0048182Y0088375D01*
X0048149Y0088331D01*
X0048120Y0088286D01*
X0048094Y0088238D01*
X0048071Y0088188D01*
X0048052Y0088138D01*
X0048037Y0088086D01*
X0048025Y0088032D01*
X0048018Y0087979D01*
X0048014Y0087925D01*
X0048013Y0087870D01*
X0048017Y0087816D01*
X0048025Y0087762D01*
X0048036Y0087709D01*
X0048051Y0087657D01*
X0048070Y0087606D01*
X0048093Y0087557D01*
X0048118Y0087509D01*
X0048148Y0087463D01*
X0048180Y0087420D01*
X0048215Y0087378D01*
X0048254Y0087340D01*
X0048295Y0087304D01*
X0048338Y0087271D01*
X0048383Y0087242D01*
X0045950Y0085836D02*
X0045950Y0089158D01*
X0043394Y0089158D02*
X0043394Y0085836D01*
X0043396Y0085766D01*
X0043402Y0085695D01*
X0043411Y0085626D01*
X0043425Y0085557D01*
X0043442Y0085488D01*
X0043463Y0085421D01*
X0043488Y0085355D01*
X0043516Y0085291D01*
X0043548Y0085228D01*
X0043583Y0085167D01*
X0043622Y0085108D01*
X0043663Y0085051D01*
X0043708Y0084997D01*
X0043756Y0084945D01*
X0043806Y0084896D01*
X0043860Y0084849D01*
X0043915Y0084806D01*
X0043973Y0084766D01*
X0044033Y0084729D01*
X0044095Y0084696D01*
X0044159Y0084666D01*
X0044224Y0084639D01*
X0044290Y0084616D01*
X0044358Y0084597D01*
X0044427Y0084582D01*
X0044496Y0084570D01*
X0044566Y0084562D01*
X0044637Y0084558D01*
X0044707Y0084558D01*
X0044778Y0084562D01*
X0044848Y0084570D01*
X0044917Y0084582D01*
X0044986Y0084597D01*
X0045054Y0084616D01*
X0045120Y0084639D01*
X0045185Y0084666D01*
X0045249Y0084696D01*
X0045311Y0084729D01*
X0045371Y0084766D01*
X0045429Y0084806D01*
X0045484Y0084849D01*
X0045538Y0084896D01*
X0045588Y0084945D01*
X0045636Y0084997D01*
X0045681Y0085051D01*
X0045722Y0085108D01*
X0045761Y0085167D01*
X0045796Y0085228D01*
X0045828Y0085291D01*
X0045856Y0085355D01*
X0045881Y0085421D01*
X0045902Y0085488D01*
X0045919Y0085557D01*
X0045933Y0085626D01*
X0045942Y0085695D01*
X0045948Y0085766D01*
X0045950Y0085836D01*
X0081170Y0075996D02*
X0084748Y0074974D01*
X0084748Y0077530D01*
X0083726Y0076763D02*
X0085770Y0076763D01*
X0085770Y0073059D02*
X0083726Y0072036D01*
X0083726Y0071781D02*
X0083726Y0070503D01*
X0083726Y0071781D02*
X0083724Y0071851D01*
X0083718Y0071922D01*
X0083709Y0071991D01*
X0083695Y0072060D01*
X0083678Y0072129D01*
X0083657Y0072196D01*
X0083632Y0072262D01*
X0083604Y0072326D01*
X0083572Y0072389D01*
X0083537Y0072450D01*
X0083498Y0072509D01*
X0083457Y0072566D01*
X0083412Y0072620D01*
X0083364Y0072672D01*
X0083314Y0072721D01*
X0083260Y0072768D01*
X0083205Y0072811D01*
X0083147Y0072851D01*
X0083087Y0072888D01*
X0083025Y0072921D01*
X0082961Y0072951D01*
X0082896Y0072978D01*
X0082830Y0073001D01*
X0082762Y0073020D01*
X0082693Y0073035D01*
X0082624Y0073047D01*
X0082554Y0073055D01*
X0082483Y0073059D01*
X0082413Y0073059D01*
X0082342Y0073055D01*
X0082272Y0073047D01*
X0082203Y0073035D01*
X0082134Y0073020D01*
X0082066Y0073001D01*
X0082000Y0072978D01*
X0081935Y0072951D01*
X0081871Y0072921D01*
X0081809Y0072888D01*
X0081749Y0072851D01*
X0081691Y0072811D01*
X0081636Y0072768D01*
X0081582Y0072721D01*
X0081532Y0072672D01*
X0081484Y0072620D01*
X0081439Y0072566D01*
X0081398Y0072509D01*
X0081359Y0072450D01*
X0081324Y0072389D01*
X0081292Y0072326D01*
X0081264Y0072262D01*
X0081239Y0072196D01*
X0081218Y0072129D01*
X0081201Y0072060D01*
X0081187Y0071991D01*
X0081178Y0071922D01*
X0081172Y0071851D01*
X0081170Y0071781D01*
X0081170Y0070503D01*
X0085770Y0070503D01*
X0118709Y0074473D02*
X0121265Y0074473D01*
X0119987Y0074473D02*
X0119987Y0069873D01*
X0122909Y0069873D02*
X0125465Y0069873D01*
X0124187Y0069873D02*
X0124187Y0074473D01*
X0122909Y0073451D01*
X0131308Y0075261D02*
X0133863Y0075261D01*
X0132586Y0075261D02*
X0132586Y0070661D01*
X0135508Y0070661D02*
X0138063Y0070661D01*
X0135508Y0070661D02*
X0137680Y0073216D01*
X0136913Y0075260D02*
X0136839Y0075258D01*
X0136765Y0075253D01*
X0136691Y0075243D01*
X0136618Y0075230D01*
X0136545Y0075214D01*
X0136474Y0075193D01*
X0136404Y0075169D01*
X0136335Y0075142D01*
X0136267Y0075111D01*
X0136201Y0075077D01*
X0136137Y0075040D01*
X0136075Y0074999D01*
X0136015Y0074955D01*
X0135957Y0074909D01*
X0135901Y0074859D01*
X0135848Y0074807D01*
X0135798Y0074752D01*
X0135751Y0074695D01*
X0135707Y0074635D01*
X0135665Y0074573D01*
X0135627Y0074510D01*
X0135592Y0074444D01*
X0135561Y0074377D01*
X0135533Y0074308D01*
X0135508Y0074238D01*
X0137680Y0073217D02*
X0137727Y0073264D01*
X0137771Y0073314D01*
X0137813Y0073366D01*
X0137852Y0073420D01*
X0137887Y0073476D01*
X0137920Y0073534D01*
X0137950Y0073594D01*
X0137976Y0073655D01*
X0137999Y0073718D01*
X0138018Y0073782D01*
X0138034Y0073846D01*
X0138047Y0073912D01*
X0138056Y0073978D01*
X0138061Y0074044D01*
X0138063Y0074111D01*
X0138061Y0074178D01*
X0138055Y0074245D01*
X0138046Y0074311D01*
X0138032Y0074376D01*
X0138015Y0074441D01*
X0137994Y0074504D01*
X0137969Y0074566D01*
X0137941Y0074627D01*
X0137909Y0074686D01*
X0137874Y0074743D01*
X0137835Y0074798D01*
X0137794Y0074850D01*
X0137749Y0074900D01*
X0137702Y0074947D01*
X0137652Y0074992D01*
X0137600Y0075033D01*
X0137545Y0075072D01*
X0137488Y0075107D01*
X0137429Y0075139D01*
X0137368Y0075167D01*
X0137306Y0075192D01*
X0137243Y0075213D01*
X0137178Y0075230D01*
X0137113Y0075244D01*
X0137047Y0075253D01*
X0136980Y0075259D01*
X0136913Y0075261D01*
X0135183Y0058397D02*
X0135183Y0057375D01*
X0135183Y0058397D02*
X0135181Y0058460D01*
X0135175Y0058523D01*
X0135166Y0058585D01*
X0135152Y0058646D01*
X0135135Y0058707D01*
X0135114Y0058766D01*
X0135089Y0058824D01*
X0135061Y0058881D01*
X0135030Y0058935D01*
X0134995Y0058987D01*
X0134957Y0059038D01*
X0134916Y0059086D01*
X0134872Y0059131D01*
X0134826Y0059173D01*
X0134777Y0059213D01*
X0134726Y0059249D01*
X0134672Y0059282D01*
X0134617Y0059312D01*
X0134559Y0059338D01*
X0134501Y0059361D01*
X0134441Y0059380D01*
X0134380Y0059395D01*
X0134318Y0059407D01*
X0134255Y0059415D01*
X0134192Y0059419D01*
X0134130Y0059419D01*
X0134067Y0059415D01*
X0134004Y0059407D01*
X0133942Y0059395D01*
X0133881Y0059380D01*
X0133821Y0059361D01*
X0133763Y0059338D01*
X0133705Y0059312D01*
X0133650Y0059282D01*
X0133596Y0059249D01*
X0133545Y0059213D01*
X0133496Y0059173D01*
X0133450Y0059131D01*
X0133406Y0059086D01*
X0133365Y0059038D01*
X0133327Y0058987D01*
X0133292Y0058935D01*
X0133261Y0058881D01*
X0133233Y0058824D01*
X0133208Y0058766D01*
X0133187Y0058707D01*
X0133170Y0058646D01*
X0133156Y0058585D01*
X0133147Y0058523D01*
X0133141Y0058460D01*
X0133139Y0058397D01*
X0133139Y0056864D01*
X0135183Y0058142D02*
X0135185Y0058212D01*
X0135191Y0058283D01*
X0135200Y0058352D01*
X0135214Y0058421D01*
X0135231Y0058490D01*
X0135252Y0058557D01*
X0135277Y0058623D01*
X0135305Y0058687D01*
X0135337Y0058750D01*
X0135372Y0058811D01*
X0135411Y0058870D01*
X0135452Y0058927D01*
X0135497Y0058981D01*
X0135545Y0059033D01*
X0135595Y0059082D01*
X0135649Y0059129D01*
X0135704Y0059172D01*
X0135762Y0059212D01*
X0135822Y0059249D01*
X0135884Y0059282D01*
X0135948Y0059312D01*
X0136013Y0059339D01*
X0136079Y0059362D01*
X0136147Y0059381D01*
X0136216Y0059396D01*
X0136285Y0059408D01*
X0136355Y0059416D01*
X0136426Y0059420D01*
X0136496Y0059420D01*
X0136567Y0059416D01*
X0136637Y0059408D01*
X0136706Y0059396D01*
X0136775Y0059381D01*
X0136843Y0059362D01*
X0136909Y0059339D01*
X0136974Y0059312D01*
X0137038Y0059282D01*
X0137100Y0059249D01*
X0137160Y0059212D01*
X0137218Y0059172D01*
X0137273Y0059129D01*
X0137327Y0059082D01*
X0137377Y0059033D01*
X0137425Y0058981D01*
X0137470Y0058927D01*
X0137511Y0058870D01*
X0137550Y0058811D01*
X0137585Y0058750D01*
X0137617Y0058687D01*
X0137645Y0058623D01*
X0137670Y0058557D01*
X0137691Y0058490D01*
X0137708Y0058421D01*
X0137722Y0058352D01*
X0137731Y0058283D01*
X0137737Y0058212D01*
X0137739Y0058142D01*
X0137739Y0056864D01*
X0137739Y0054948D02*
X0135694Y0053926D01*
X0135694Y0053671D02*
X0135694Y0052393D01*
X0135694Y0053671D02*
X0135692Y0053741D01*
X0135686Y0053812D01*
X0135677Y0053881D01*
X0135663Y0053950D01*
X0135646Y0054019D01*
X0135625Y0054086D01*
X0135600Y0054152D01*
X0135572Y0054216D01*
X0135540Y0054279D01*
X0135505Y0054340D01*
X0135466Y0054399D01*
X0135425Y0054456D01*
X0135380Y0054510D01*
X0135332Y0054562D01*
X0135282Y0054611D01*
X0135228Y0054658D01*
X0135173Y0054701D01*
X0135115Y0054741D01*
X0135055Y0054778D01*
X0134993Y0054811D01*
X0134929Y0054841D01*
X0134864Y0054868D01*
X0134798Y0054891D01*
X0134730Y0054910D01*
X0134661Y0054925D01*
X0134592Y0054937D01*
X0134522Y0054945D01*
X0134451Y0054949D01*
X0134381Y0054949D01*
X0134310Y0054945D01*
X0134240Y0054937D01*
X0134171Y0054925D01*
X0134102Y0054910D01*
X0134034Y0054891D01*
X0133968Y0054868D01*
X0133903Y0054841D01*
X0133839Y0054811D01*
X0133777Y0054778D01*
X0133717Y0054741D01*
X0133659Y0054701D01*
X0133604Y0054658D01*
X0133550Y0054611D01*
X0133500Y0054562D01*
X0133452Y0054510D01*
X0133407Y0054456D01*
X0133366Y0054399D01*
X0133327Y0054340D01*
X0133292Y0054279D01*
X0133260Y0054216D01*
X0133232Y0054152D01*
X0133207Y0054086D01*
X0133186Y0054019D01*
X0133169Y0053950D01*
X0133155Y0053881D01*
X0133146Y0053812D01*
X0133140Y0053741D01*
X0133138Y0053671D01*
X0133139Y0053671D02*
X0133139Y0052393D01*
X0137739Y0052393D01*
X0125140Y0051999D02*
X0120540Y0051999D01*
X0120540Y0053277D01*
X0120542Y0053347D01*
X0120548Y0053418D01*
X0120557Y0053487D01*
X0120571Y0053556D01*
X0120588Y0053625D01*
X0120609Y0053692D01*
X0120634Y0053758D01*
X0120662Y0053822D01*
X0120694Y0053885D01*
X0120729Y0053946D01*
X0120768Y0054005D01*
X0120809Y0054062D01*
X0120854Y0054116D01*
X0120902Y0054168D01*
X0120952Y0054217D01*
X0121006Y0054264D01*
X0121061Y0054307D01*
X0121119Y0054347D01*
X0121179Y0054384D01*
X0121241Y0054417D01*
X0121305Y0054447D01*
X0121370Y0054474D01*
X0121436Y0054497D01*
X0121504Y0054516D01*
X0121573Y0054531D01*
X0121642Y0054543D01*
X0121712Y0054551D01*
X0121783Y0054555D01*
X0121853Y0054555D01*
X0121924Y0054551D01*
X0121994Y0054543D01*
X0122063Y0054531D01*
X0122132Y0054516D01*
X0122200Y0054497D01*
X0122266Y0054474D01*
X0122331Y0054447D01*
X0122395Y0054417D01*
X0122457Y0054384D01*
X0122517Y0054347D01*
X0122575Y0054307D01*
X0122630Y0054264D01*
X0122684Y0054217D01*
X0122734Y0054168D01*
X0122782Y0054116D01*
X0122827Y0054062D01*
X0122868Y0054005D01*
X0122907Y0053946D01*
X0122942Y0053885D01*
X0122974Y0053822D01*
X0123002Y0053758D01*
X0123027Y0053692D01*
X0123048Y0053625D01*
X0123065Y0053556D01*
X0123079Y0053487D01*
X0123088Y0053418D01*
X0123094Y0053347D01*
X0123096Y0053277D01*
X0123096Y0051999D01*
X0123096Y0053533D02*
X0125140Y0054555D01*
X0125140Y0056470D02*
X0125140Y0059026D01*
X0125140Y0056470D02*
X0122585Y0058642D01*
X0120541Y0057876D02*
X0120543Y0057802D01*
X0120548Y0057728D01*
X0120558Y0057654D01*
X0120571Y0057581D01*
X0120587Y0057508D01*
X0120608Y0057437D01*
X0120632Y0057367D01*
X0120659Y0057298D01*
X0120690Y0057230D01*
X0120724Y0057164D01*
X0120761Y0057100D01*
X0120802Y0057038D01*
X0120846Y0056977D01*
X0120892Y0056920D01*
X0120942Y0056864D01*
X0120994Y0056811D01*
X0121049Y0056761D01*
X0121106Y0056714D01*
X0121166Y0056670D01*
X0121228Y0056628D01*
X0121291Y0056590D01*
X0121357Y0056555D01*
X0121424Y0056524D01*
X0121493Y0056496D01*
X0121563Y0056471D01*
X0122584Y0058643D02*
X0122537Y0058690D01*
X0122487Y0058734D01*
X0122435Y0058776D01*
X0122381Y0058815D01*
X0122325Y0058850D01*
X0122267Y0058883D01*
X0122207Y0058913D01*
X0122146Y0058939D01*
X0122083Y0058962D01*
X0122019Y0058981D01*
X0121955Y0058997D01*
X0121889Y0059010D01*
X0121823Y0059019D01*
X0121757Y0059024D01*
X0121690Y0059026D01*
X0121623Y0059024D01*
X0121556Y0059018D01*
X0121490Y0059009D01*
X0121425Y0058995D01*
X0121360Y0058978D01*
X0121297Y0058957D01*
X0121235Y0058932D01*
X0121174Y0058904D01*
X0121115Y0058872D01*
X0121058Y0058837D01*
X0121003Y0058798D01*
X0120951Y0058757D01*
X0120901Y0058712D01*
X0120854Y0058665D01*
X0120809Y0058615D01*
X0120768Y0058563D01*
X0120729Y0058508D01*
X0120694Y0058451D01*
X0120662Y0058392D01*
X0120634Y0058331D01*
X0120609Y0058269D01*
X0120588Y0058206D01*
X0120571Y0058141D01*
X0120557Y0058076D01*
X0120548Y0058010D01*
X0120542Y0057943D01*
X0120540Y0057876D01*
X0045458Y0019139D02*
X0043414Y0019139D01*
X0043414Y0017094D02*
X0044947Y0017094D01*
D13*
X0045576Y0014496D03*
X0045576Y0019220D03*
D14*
X0045576Y0016858D03*
D15*
X0096994Y0106543D02*
X0096994Y0129043D01*
X0106994Y0129043D02*
X0106994Y0106543D01*
X0122191Y0106543D02*
X0122191Y0129043D01*
X0132191Y0129043D02*
X0132191Y0106543D01*
D16*
X0132191Y0105043D03*
X0122191Y0105043D03*
X0106994Y0105043D03*
X0096994Y0105043D03*
D17*
X0096994Y0092043D03*
X0106994Y0092043D03*
X0122191Y0092043D03*
X0132191Y0092043D03*
D18*
X0061443Y0047500D02*
X0063805Y0043563D01*
X0059080Y0043563D01*
X0061443Y0047500D01*
D19*
X0061443Y0048231D03*
D20*
X0067459Y0046840D02*
X0068267Y0045829D01*
X0067459Y0046840D02*
X0071096Y0046840D01*
X0071096Y0047850D02*
X0071096Y0045829D01*
X0070085Y0044189D02*
X0068469Y0044189D01*
X0068469Y0044188D02*
X0068408Y0044186D01*
X0068347Y0044181D01*
X0068287Y0044171D01*
X0068227Y0044159D01*
X0068169Y0044142D01*
X0068111Y0044122D01*
X0068054Y0044099D01*
X0068000Y0044072D01*
X0067946Y0044042D01*
X0067895Y0044009D01*
X0067846Y0043973D01*
X0067799Y0043934D01*
X0067755Y0043892D01*
X0067713Y0043848D01*
X0067674Y0043801D01*
X0067638Y0043752D01*
X0067605Y0043701D01*
X0067575Y0043647D01*
X0067548Y0043593D01*
X0067525Y0043536D01*
X0067505Y0043478D01*
X0067488Y0043420D01*
X0067476Y0043360D01*
X0067466Y0043300D01*
X0067461Y0043239D01*
X0067459Y0043178D01*
X0067459Y0042168D01*
X0071096Y0042168D01*
X0071096Y0043178D01*
X0071095Y0043178D02*
X0071093Y0043239D01*
X0071088Y0043300D01*
X0071078Y0043360D01*
X0071066Y0043420D01*
X0071049Y0043478D01*
X0071029Y0043536D01*
X0071006Y0043593D01*
X0070979Y0043647D01*
X0070949Y0043701D01*
X0070916Y0043752D01*
X0070880Y0043801D01*
X0070841Y0043848D01*
X0070799Y0043892D01*
X0070755Y0043934D01*
X0070708Y0043973D01*
X0070659Y0044009D01*
X0070608Y0044042D01*
X0070554Y0044072D01*
X0070500Y0044099D01*
X0070443Y0044122D01*
X0070385Y0044142D01*
X0070327Y0044159D01*
X0070267Y0044171D01*
X0070207Y0044181D01*
X0070146Y0044186D01*
X0070085Y0044188D01*
M02*
