%
M48
M72
T24C0.0240
T40C0.0400
T138C0.1380
%
T24
X3625Y3265
X7333Y4572
X8231Y4564
X8900Y2831
X9924Y2831
X11892Y3501
X8349Y6414
X10357Y6808
X10908Y6808
X7333Y8068
T40
X9699Y8654
X10699Y8654
X12219Y8654
X13219Y8654
X12904Y1969
X11904Y1969
X10904Y1969
X9904Y1969
X8904Y1969
X7904Y1969
T138
X1341Y3107
X1341Y9013
X15908Y9013
X15908Y3107
M30
