G75*
%MOIN*%
%OFA0B0*%
%FSLAX25Y25*%
%IPPOS*%
%LPD*%
%AMOC8*
5,1,8,0,0,1.08239X$1,22.5*
%
%ADD10C,0.00600*%
%ADD11C,0.06000*%
%ADD12C,0.01200*%
%ADD13C,0.03962*%
D10*
X0047392Y0012571D02*
X0053792Y0014705D01*
X0047392Y0016838D01*
X0048992Y0016305D02*
X0048992Y0013105D01*
X0048459Y0019120D02*
X0053792Y0019120D01*
X0057892Y0019943D02*
X0057892Y0021720D01*
X0057892Y0019943D02*
X0057894Y0019879D01*
X0057900Y0019814D01*
X0057909Y0019751D01*
X0057923Y0019688D01*
X0057940Y0019626D01*
X0057961Y0019565D01*
X0057986Y0019505D01*
X0058014Y0019447D01*
X0058046Y0019391D01*
X0058081Y0019337D01*
X0058119Y0019285D01*
X0058160Y0019235D01*
X0058205Y0019189D01*
X0058251Y0019144D01*
X0058301Y0019103D01*
X0058353Y0019065D01*
X0058407Y0019030D01*
X0058463Y0018998D01*
X0058521Y0018970D01*
X0058581Y0018945D01*
X0058642Y0018924D01*
X0058704Y0018907D01*
X0058767Y0018893D01*
X0058830Y0018884D01*
X0058895Y0018878D01*
X0058959Y0018876D01*
X0060737Y0018876D01*
X0060025Y0018876D02*
X0060025Y0021720D01*
X0060737Y0021720D01*
X0060811Y0021718D01*
X0060886Y0021712D01*
X0060959Y0021702D01*
X0061033Y0021689D01*
X0061105Y0021672D01*
X0061176Y0021650D01*
X0061247Y0021626D01*
X0061315Y0021597D01*
X0061383Y0021565D01*
X0061448Y0021529D01*
X0061511Y0021491D01*
X0061573Y0021448D01*
X0061632Y0021403D01*
X0061689Y0021355D01*
X0061743Y0021304D01*
X0061794Y0021250D01*
X0061842Y0021193D01*
X0061887Y0021134D01*
X0061930Y0021072D01*
X0061968Y0021009D01*
X0062004Y0020944D01*
X0062036Y0020876D01*
X0062065Y0020808D01*
X0062089Y0020737D01*
X0062111Y0020666D01*
X0062128Y0020594D01*
X0062141Y0020520D01*
X0062151Y0020447D01*
X0062157Y0020372D01*
X0062159Y0020298D01*
X0062157Y0020224D01*
X0062151Y0020149D01*
X0062141Y0020076D01*
X0062128Y0020002D01*
X0062111Y0019930D01*
X0062089Y0019859D01*
X0062065Y0019788D01*
X0062036Y0019720D01*
X0062004Y0019652D01*
X0061968Y0019587D01*
X0061930Y0019524D01*
X0061887Y0019462D01*
X0061842Y0019403D01*
X0061794Y0019346D01*
X0061743Y0019292D01*
X0061689Y0019241D01*
X0061632Y0019193D01*
X0061573Y0019148D01*
X0061511Y0019105D01*
X0061448Y0019067D01*
X0061383Y0019031D01*
X0061315Y0018999D01*
X0061247Y0018970D01*
X0061176Y0018946D01*
X0061105Y0018924D01*
X0061033Y0018907D01*
X0060959Y0018894D01*
X0060886Y0018884D01*
X0060811Y0018878D01*
X0060737Y0018876D01*
X0061448Y0016127D02*
X0061448Y0012571D01*
X0064292Y0012571D02*
X0057892Y0012571D01*
X0057892Y0016127D02*
X0064292Y0016127D01*
X0064292Y0024018D02*
X0064292Y0024373D01*
X0063937Y0024373D01*
X0063937Y0024018D01*
X0064292Y0024018D01*
X0062159Y0024196D02*
X0057892Y0024196D01*
X0057892Y0026466D02*
X0057892Y0029310D01*
X0058959Y0031799D02*
X0062159Y0031799D01*
X0062159Y0029310D02*
X0057892Y0026466D01*
X0062159Y0026466D02*
X0062159Y0029310D01*
X0058959Y0031799D02*
X0058895Y0031801D01*
X0058830Y0031807D01*
X0058767Y0031816D01*
X0058704Y0031830D01*
X0058642Y0031847D01*
X0058581Y0031868D01*
X0058521Y0031893D01*
X0058463Y0031921D01*
X0058407Y0031953D01*
X0058353Y0031988D01*
X0058301Y0032026D01*
X0058251Y0032067D01*
X0058205Y0032112D01*
X0058160Y0032158D01*
X0058119Y0032208D01*
X0058081Y0032260D01*
X0058046Y0032314D01*
X0058014Y0032370D01*
X0057986Y0032428D01*
X0057961Y0032488D01*
X0057940Y0032549D01*
X0057923Y0032611D01*
X0057909Y0032674D01*
X0057900Y0032737D01*
X0057894Y0032802D01*
X0057892Y0032866D01*
X0057892Y0034644D01*
X0062159Y0034644D01*
X0062159Y0037543D02*
X0062159Y0039321D01*
X0062157Y0039385D01*
X0062151Y0039450D01*
X0062142Y0039513D01*
X0062128Y0039576D01*
X0062111Y0039638D01*
X0062090Y0039699D01*
X0062065Y0039759D01*
X0062037Y0039817D01*
X0062005Y0039873D01*
X0061970Y0039927D01*
X0061932Y0039979D01*
X0061891Y0040029D01*
X0061846Y0040075D01*
X0061800Y0040120D01*
X0061750Y0040161D01*
X0061698Y0040199D01*
X0061644Y0040234D01*
X0061588Y0040266D01*
X0061530Y0040294D01*
X0061470Y0040319D01*
X0061409Y0040340D01*
X0061347Y0040357D01*
X0061284Y0040371D01*
X0061221Y0040380D01*
X0061156Y0040386D01*
X0061092Y0040388D01*
X0057892Y0040388D01*
X0057892Y0037543D02*
X0062159Y0037543D01*
X0061092Y0043053D02*
X0058959Y0043053D01*
X0058895Y0043055D01*
X0058830Y0043061D01*
X0058767Y0043070D01*
X0058704Y0043084D01*
X0058642Y0043101D01*
X0058581Y0043122D01*
X0058521Y0043147D01*
X0058463Y0043175D01*
X0058407Y0043207D01*
X0058353Y0043242D01*
X0058301Y0043280D01*
X0058251Y0043321D01*
X0058205Y0043366D01*
X0058160Y0043412D01*
X0058119Y0043462D01*
X0058081Y0043514D01*
X0058046Y0043568D01*
X0058014Y0043624D01*
X0057986Y0043682D01*
X0057961Y0043742D01*
X0057940Y0043803D01*
X0057923Y0043865D01*
X0057909Y0043928D01*
X0057900Y0043991D01*
X0057894Y0044056D01*
X0057892Y0044120D01*
X0057892Y0045897D01*
X0056825Y0045897D02*
X0062159Y0045897D01*
X0062159Y0044120D01*
X0062157Y0044056D01*
X0062151Y0043991D01*
X0062142Y0043928D01*
X0062128Y0043865D01*
X0062111Y0043803D01*
X0062090Y0043742D01*
X0062065Y0043682D01*
X0062037Y0043624D01*
X0062005Y0043568D01*
X0061970Y0043514D01*
X0061932Y0043462D01*
X0061891Y0043412D01*
X0061846Y0043366D01*
X0061800Y0043321D01*
X0061750Y0043280D01*
X0061698Y0043242D01*
X0061644Y0043207D01*
X0061588Y0043175D01*
X0061530Y0043147D01*
X0061470Y0043122D01*
X0061409Y0043101D01*
X0061347Y0043084D01*
X0061284Y0043070D01*
X0061221Y0043061D01*
X0061156Y0043055D01*
X0061092Y0043053D01*
X0056825Y0045898D02*
X0056761Y0045896D01*
X0056696Y0045890D01*
X0056633Y0045881D01*
X0056570Y0045867D01*
X0056508Y0045850D01*
X0056447Y0045829D01*
X0056387Y0045804D01*
X0056329Y0045776D01*
X0056273Y0045744D01*
X0056219Y0045709D01*
X0056167Y0045671D01*
X0056117Y0045630D01*
X0056071Y0045585D01*
X0056026Y0045539D01*
X0055985Y0045489D01*
X0055947Y0045437D01*
X0055912Y0045383D01*
X0055880Y0045327D01*
X0055852Y0045269D01*
X0055827Y0045209D01*
X0055806Y0045148D01*
X0055789Y0045086D01*
X0055775Y0045023D01*
X0055766Y0044960D01*
X0055760Y0044895D01*
X0055758Y0044831D01*
X0055759Y0044831D02*
X0055759Y0043408D01*
X0062159Y0049510D02*
X0062155Y0049628D01*
X0062148Y0049745D01*
X0062138Y0049863D01*
X0062124Y0049980D01*
X0062107Y0050096D01*
X0062087Y0050212D01*
X0062063Y0050328D01*
X0062036Y0050443D01*
X0062005Y0050557D01*
X0061971Y0050669D01*
X0061934Y0050781D01*
X0061893Y0050892D01*
X0061850Y0051002D01*
X0061803Y0051110D01*
X0062159Y0049509D02*
X0062158Y0049450D01*
X0062153Y0049390D01*
X0062144Y0049332D01*
X0062132Y0049273D01*
X0062115Y0049216D01*
X0062096Y0049160D01*
X0062072Y0049105D01*
X0062045Y0049052D01*
X0062015Y0049001D01*
X0061981Y0048952D01*
X0061945Y0048905D01*
X0061905Y0048861D01*
X0061863Y0048819D01*
X0061818Y0048780D01*
X0061770Y0048744D01*
X0061721Y0048711D01*
X0061669Y0048682D01*
X0061616Y0048655D01*
X0061561Y0048633D01*
X0061504Y0048614D01*
X0061447Y0048598D01*
X0061389Y0048587D01*
X0061330Y0048579D01*
X0061270Y0048575D01*
X0061211Y0048574D01*
X0061151Y0048578D01*
X0061092Y0048585D01*
X0061034Y0048597D01*
X0060976Y0048612D01*
X0060920Y0048630D01*
X0060865Y0048653D01*
X0060811Y0048678D01*
X0060759Y0048708D01*
X0060709Y0048740D01*
X0060662Y0048776D01*
X0060616Y0048814D01*
X0060574Y0048856D01*
X0060534Y0048900D01*
X0060497Y0048946D01*
X0060463Y0048995D01*
X0060432Y0049046D01*
X0060405Y0049099D01*
X0060381Y0049154D01*
X0059670Y0050931D01*
X0059646Y0050986D01*
X0059619Y0051039D01*
X0059588Y0051090D01*
X0059554Y0051139D01*
X0059517Y0051185D01*
X0059477Y0051229D01*
X0059435Y0051271D01*
X0059389Y0051309D01*
X0059342Y0051345D01*
X0059292Y0051377D01*
X0059240Y0051407D01*
X0059186Y0051432D01*
X0059131Y0051455D01*
X0059075Y0051473D01*
X0059017Y0051488D01*
X0058959Y0051500D01*
X0058900Y0051507D01*
X0058840Y0051511D01*
X0058781Y0051510D01*
X0058721Y0051506D01*
X0058662Y0051498D01*
X0058604Y0051487D01*
X0058547Y0051471D01*
X0058490Y0051452D01*
X0058435Y0051430D01*
X0058382Y0051403D01*
X0058330Y0051374D01*
X0058281Y0051341D01*
X0058233Y0051305D01*
X0058188Y0051266D01*
X0058146Y0051224D01*
X0058106Y0051180D01*
X0058070Y0051133D01*
X0058036Y0051084D01*
X0058006Y0051033D01*
X0057979Y0050980D01*
X0057955Y0050925D01*
X0057936Y0050869D01*
X0057919Y0050812D01*
X0057907Y0050753D01*
X0057898Y0050695D01*
X0057893Y0050635D01*
X0057892Y0050576D01*
X0060381Y0054063D02*
X0060381Y0058330D01*
X0057892Y0050576D02*
X0057896Y0050422D01*
X0057904Y0050269D01*
X0057916Y0050116D01*
X0057932Y0049963D01*
X0057951Y0049811D01*
X0057975Y0049659D01*
X0058002Y0049508D01*
X0058034Y0049358D01*
X0058069Y0049208D01*
X0058108Y0049059D01*
X0058151Y0048912D01*
X0058197Y0048765D01*
X0058247Y0048620D01*
X0050592Y0036736D02*
X0047392Y0036736D01*
X0047392Y0034603D02*
X0051659Y0034603D01*
X0051659Y0035670D02*
X0051659Y0032470D01*
X0047392Y0032470D01*
X0050948Y0030219D02*
X0051659Y0030219D01*
X0051659Y0028086D01*
X0047392Y0028086D01*
X0047392Y0025124D02*
X0050592Y0025124D01*
X0049881Y0025124D02*
X0049881Y0023524D01*
X0050592Y0025124D02*
X0050656Y0025122D01*
X0050721Y0025116D01*
X0050784Y0025107D01*
X0050847Y0025093D01*
X0050909Y0025076D01*
X0050970Y0025055D01*
X0051030Y0025030D01*
X0051088Y0025002D01*
X0051144Y0024970D01*
X0051198Y0024935D01*
X0051250Y0024897D01*
X0051300Y0024856D01*
X0051346Y0024811D01*
X0051391Y0024765D01*
X0051432Y0024715D01*
X0051470Y0024663D01*
X0051505Y0024609D01*
X0051537Y0024553D01*
X0051565Y0024495D01*
X0051590Y0024435D01*
X0051611Y0024374D01*
X0051628Y0024312D01*
X0051642Y0024249D01*
X0051651Y0024186D01*
X0051657Y0024121D01*
X0051659Y0024057D01*
X0051659Y0022635D01*
X0049881Y0023524D02*
X0049879Y0023454D01*
X0049873Y0023385D01*
X0049863Y0023316D01*
X0049850Y0023247D01*
X0049832Y0023180D01*
X0049811Y0023113D01*
X0049786Y0023048D01*
X0049758Y0022984D01*
X0049726Y0022922D01*
X0049690Y0022862D01*
X0049652Y0022804D01*
X0049610Y0022748D01*
X0049565Y0022695D01*
X0049517Y0022644D01*
X0049466Y0022596D01*
X0049413Y0022551D01*
X0049357Y0022509D01*
X0049299Y0022471D01*
X0049239Y0022435D01*
X0049177Y0022403D01*
X0049113Y0022375D01*
X0049048Y0022350D01*
X0048981Y0022329D01*
X0048914Y0022311D01*
X0048845Y0022298D01*
X0048776Y0022288D01*
X0048707Y0022282D01*
X0048637Y0022280D01*
X0048567Y0022282D01*
X0048498Y0022288D01*
X0048429Y0022298D01*
X0048360Y0022311D01*
X0048293Y0022329D01*
X0048226Y0022350D01*
X0048161Y0022375D01*
X0048097Y0022403D01*
X0048035Y0022435D01*
X0047975Y0022471D01*
X0047917Y0022509D01*
X0047861Y0022551D01*
X0047808Y0022596D01*
X0047757Y0022644D01*
X0047709Y0022695D01*
X0047664Y0022748D01*
X0047622Y0022804D01*
X0047584Y0022862D01*
X0047548Y0022922D01*
X0047516Y0022984D01*
X0047488Y0023048D01*
X0047463Y0023113D01*
X0047442Y0023180D01*
X0047424Y0023247D01*
X0047411Y0023316D01*
X0047401Y0023385D01*
X0047395Y0023454D01*
X0047393Y0023524D01*
X0047392Y0023524D02*
X0047392Y0025124D01*
X0047392Y0020186D02*
X0047394Y0020122D01*
X0047400Y0020057D01*
X0047409Y0019994D01*
X0047423Y0019931D01*
X0047440Y0019869D01*
X0047461Y0019808D01*
X0047486Y0019748D01*
X0047514Y0019690D01*
X0047546Y0019634D01*
X0047581Y0019580D01*
X0047619Y0019528D01*
X0047660Y0019478D01*
X0047705Y0019432D01*
X0047751Y0019387D01*
X0047801Y0019346D01*
X0047853Y0019308D01*
X0047907Y0019273D01*
X0047963Y0019241D01*
X0048021Y0019213D01*
X0048081Y0019188D01*
X0048142Y0019167D01*
X0048204Y0019150D01*
X0048267Y0019136D01*
X0048330Y0019127D01*
X0048395Y0019121D01*
X0048459Y0019119D01*
X0051659Y0035670D02*
X0051657Y0035734D01*
X0051651Y0035799D01*
X0051642Y0035862D01*
X0051628Y0035925D01*
X0051611Y0035987D01*
X0051590Y0036048D01*
X0051565Y0036108D01*
X0051537Y0036166D01*
X0051505Y0036222D01*
X0051470Y0036276D01*
X0051432Y0036328D01*
X0051391Y0036378D01*
X0051346Y0036424D01*
X0051300Y0036469D01*
X0051250Y0036510D01*
X0051198Y0036548D01*
X0051144Y0036583D01*
X0051088Y0036615D01*
X0051030Y0036643D01*
X0050970Y0036668D01*
X0050909Y0036689D01*
X0050847Y0036706D01*
X0050784Y0036720D01*
X0050721Y0036729D01*
X0050656Y0036735D01*
X0050592Y0036737D01*
X0049886Y0076863D02*
X0053441Y0076863D01*
X0051663Y0076863D02*
X0051663Y0083263D01*
X0053441Y0081841D01*
X0055684Y0083263D02*
X0057818Y0076863D01*
X0059951Y0083263D01*
X0059951Y0087363D02*
X0059951Y0093763D01*
X0057818Y0090207D01*
X0055684Y0093763D01*
X0055684Y0087363D01*
X0052538Y0087363D02*
X0052538Y0093763D01*
X0051115Y0091274D02*
X0048982Y0087363D01*
X0046672Y0087363D02*
X0043116Y0087363D01*
X0044894Y0087363D02*
X0044894Y0093763D01*
X0046672Y0092341D01*
X0048982Y0093763D02*
X0052538Y0089852D01*
X0044293Y0082374D02*
X0044268Y0082440D01*
X0044240Y0082505D01*
X0044208Y0082569D01*
X0044173Y0082630D01*
X0044134Y0082690D01*
X0044093Y0082748D01*
X0044048Y0082803D01*
X0044000Y0082855D01*
X0043950Y0082905D01*
X0043897Y0082953D01*
X0043842Y0082997D01*
X0043784Y0083038D01*
X0043724Y0083076D01*
X0043662Y0083111D01*
X0043598Y0083142D01*
X0043533Y0083170D01*
X0043466Y0083195D01*
X0043399Y0083215D01*
X0043330Y0083232D01*
X0043260Y0083246D01*
X0043190Y0083255D01*
X0043119Y0083261D01*
X0043048Y0083263D01*
X0042977Y0083261D01*
X0042906Y0083255D01*
X0042836Y0083246D01*
X0042766Y0083232D01*
X0042697Y0083215D01*
X0042630Y0083195D01*
X0042563Y0083170D01*
X0042498Y0083142D01*
X0042434Y0083111D01*
X0042372Y0083076D01*
X0042312Y0083038D01*
X0042255Y0082997D01*
X0042199Y0082953D01*
X0042146Y0082905D01*
X0042096Y0082855D01*
X0042048Y0082803D01*
X0042003Y0082748D01*
X0041962Y0082690D01*
X0041923Y0082630D01*
X0041888Y0082569D01*
X0041856Y0082505D01*
X0041828Y0082440D01*
X0041803Y0082374D01*
X0041626Y0081841D02*
X0044470Y0078285D01*
X0043048Y0076863D02*
X0042977Y0076865D01*
X0042906Y0076871D01*
X0042836Y0076880D01*
X0042766Y0076894D01*
X0042697Y0076911D01*
X0042630Y0076931D01*
X0042563Y0076956D01*
X0042498Y0076984D01*
X0042434Y0077015D01*
X0042372Y0077050D01*
X0042312Y0077088D01*
X0042255Y0077129D01*
X0042199Y0077173D01*
X0042146Y0077221D01*
X0042096Y0077271D01*
X0042048Y0077323D01*
X0042003Y0077378D01*
X0041962Y0077436D01*
X0041923Y0077496D01*
X0041888Y0077557D01*
X0041856Y0077621D01*
X0041828Y0077686D01*
X0041803Y0077752D01*
X0043048Y0076863D02*
X0043119Y0076865D01*
X0043190Y0076871D01*
X0043260Y0076880D01*
X0043330Y0076894D01*
X0043399Y0076911D01*
X0043466Y0076931D01*
X0043533Y0076956D01*
X0043598Y0076984D01*
X0043662Y0077015D01*
X0043724Y0077050D01*
X0043784Y0077088D01*
X0043842Y0077129D01*
X0043897Y0077173D01*
X0043950Y0077221D01*
X0044000Y0077271D01*
X0044048Y0077323D01*
X0044093Y0077378D01*
X0044134Y0077436D01*
X0044173Y0077496D01*
X0044208Y0077557D01*
X0044240Y0077621D01*
X0044268Y0077686D01*
X0044293Y0077752D01*
X0041270Y0080063D02*
X0041272Y0080204D01*
X0041278Y0080344D01*
X0041287Y0080485D01*
X0041300Y0080625D01*
X0041317Y0080765D01*
X0041337Y0080904D01*
X0041362Y0081042D01*
X0041390Y0081180D01*
X0041421Y0081317D01*
X0041457Y0081454D01*
X0041496Y0081589D01*
X0041538Y0081723D01*
X0041584Y0081856D01*
X0041634Y0081988D01*
X0041687Y0082118D01*
X0041743Y0082247D01*
X0041803Y0082374D01*
X0044293Y0082374D02*
X0044353Y0082247D01*
X0044409Y0082118D01*
X0044462Y0081988D01*
X0044512Y0081856D01*
X0044558Y0081723D01*
X0044600Y0081589D01*
X0044639Y0081454D01*
X0044675Y0081317D01*
X0044706Y0081180D01*
X0044734Y0081042D01*
X0044759Y0080904D01*
X0044779Y0080765D01*
X0044796Y0080625D01*
X0044809Y0080485D01*
X0044818Y0080344D01*
X0044824Y0080204D01*
X0044826Y0080063D01*
X0041270Y0080063D02*
X0041272Y0079922D01*
X0041278Y0079782D01*
X0041287Y0079641D01*
X0041300Y0079501D01*
X0041317Y0079361D01*
X0041337Y0079222D01*
X0041362Y0079084D01*
X0041390Y0078946D01*
X0041421Y0078809D01*
X0041457Y0078672D01*
X0041496Y0078537D01*
X0041538Y0078403D01*
X0041584Y0078270D01*
X0041634Y0078138D01*
X0041687Y0078008D01*
X0041743Y0077879D01*
X0041803Y0077752D01*
X0044292Y0077752D02*
X0044352Y0077879D01*
X0044408Y0078008D01*
X0044461Y0078138D01*
X0044511Y0078270D01*
X0044557Y0078403D01*
X0044599Y0078537D01*
X0044638Y0078672D01*
X0044674Y0078809D01*
X0044705Y0078946D01*
X0044733Y0079084D01*
X0044758Y0079222D01*
X0044778Y0079361D01*
X0044795Y0079501D01*
X0044808Y0079641D01*
X0044817Y0079782D01*
X0044823Y0079922D01*
X0044825Y0080063D01*
X0047178Y0077219D02*
X0047178Y0076863D01*
X0047533Y0076863D01*
X0047533Y0077219D01*
X0047178Y0077219D01*
D11*
X0096994Y0083543D02*
X0096994Y0089543D01*
X0106994Y0089543D02*
X0106994Y0083543D01*
X0122191Y0083543D02*
X0122191Y0089543D01*
X0132191Y0089543D02*
X0132191Y0083543D01*
X0129041Y0022693D02*
X0129041Y0016693D01*
X0119041Y0016693D02*
X0119041Y0022693D01*
X0109041Y0022693D02*
X0109041Y0016693D01*
X0099041Y0016693D02*
X0099041Y0022693D01*
X0089041Y0022693D02*
X0089041Y0016693D01*
X0079041Y0016693D02*
X0079041Y0022693D01*
D12*
X0029159Y0021960D02*
X0029159Y0040182D01*
X0029696Y0040182D01*
X0030688Y0040593D01*
X0031448Y0041352D01*
X0031859Y0042345D01*
X0031859Y0078852D01*
X0031448Y0079844D01*
X0030688Y0080604D01*
X0029696Y0081015D01*
X0029159Y0081015D01*
X0029159Y0099237D01*
X0029696Y0099237D01*
X0030688Y0099648D01*
X0031448Y0100408D01*
X0038151Y0107111D01*
X0134340Y0107111D01*
X0141043Y0100408D01*
X0141043Y0100408D01*
X0141803Y0099648D01*
X0142795Y0099237D01*
X0143332Y0099237D01*
X0143332Y0081015D01*
X0142795Y0081015D01*
X0141803Y0080604D01*
X0141043Y0079844D01*
X0140632Y0078852D01*
X0140632Y0042345D01*
X0141043Y0041352D01*
X0141803Y0040593D01*
X0142795Y0040182D01*
X0143332Y0040182D01*
X0143332Y0021960D01*
X0142795Y0021960D01*
X0141803Y0021549D01*
X0141043Y0020789D01*
X0134340Y0014086D01*
X0132656Y0014086D01*
X0132771Y0014201D01*
X0133441Y0015818D01*
X0133441Y0023568D01*
X0132771Y0025185D01*
X0131859Y0026097D01*
X0131859Y0039088D01*
X0131448Y0040081D01*
X0130688Y0040840D01*
X0127539Y0043990D01*
X0126547Y0044401D01*
X0113348Y0044401D01*
X0111780Y0045969D01*
X0111780Y0065714D01*
X0112116Y0066050D01*
X0112661Y0067366D01*
X0112661Y0068791D01*
X0112116Y0070107D01*
X0111109Y0071115D01*
X0109793Y0071660D01*
X0108368Y0071660D01*
X0107052Y0071115D01*
X0106324Y0070387D01*
X0105851Y0070860D01*
X0105265Y0071252D01*
X0104613Y0071522D01*
X0103921Y0071660D01*
X0103569Y0071660D01*
X0103569Y0068079D01*
X0103568Y0068079D01*
X0103568Y0068079D01*
X0099987Y0068079D01*
X0099987Y0068431D01*
X0100125Y0069123D01*
X0100395Y0069775D01*
X0100787Y0070362D01*
X0101286Y0070860D01*
X0101872Y0071252D01*
X0102524Y0071522D01*
X0103216Y0071660D01*
X0103568Y0071660D01*
X0103568Y0068079D01*
X0099987Y0068079D01*
X0099987Y0067726D01*
X0100125Y0067034D01*
X0100395Y0066382D01*
X0100787Y0065796D01*
X0101286Y0065297D01*
X0101872Y0064905D01*
X0102524Y0064635D01*
X0103216Y0064498D01*
X0103568Y0064498D01*
X0103568Y0068079D01*
X0103569Y0068079D02*
X0103569Y0063748D01*
X0103175Y0064142D01*
X0083490Y0064142D01*
X0083490Y0064142D01*
X0083490Y0067723D01*
X0083842Y0067723D01*
X0084534Y0067585D01*
X0085186Y0067315D01*
X0085773Y0066923D01*
X0086271Y0066425D01*
X0086663Y0065838D01*
X0086933Y0065186D01*
X0087071Y0064494D01*
X0087071Y0064142D01*
X0083490Y0064142D01*
X0083490Y0064142D01*
X0083490Y0067723D01*
X0083137Y0067723D01*
X0082445Y0067585D01*
X0081793Y0067315D01*
X0081207Y0066923D01*
X0080708Y0066425D01*
X0080316Y0065838D01*
X0080046Y0065186D01*
X0079909Y0064494D01*
X0079909Y0064142D01*
X0083490Y0064142D01*
X0087071Y0064142D01*
X0087071Y0063789D01*
X0086933Y0063097D01*
X0086663Y0062445D01*
X0086271Y0061859D01*
X0085773Y0061360D01*
X0085186Y0060968D01*
X0084534Y0060698D01*
X0083842Y0060561D01*
X0083490Y0060561D01*
X0083490Y0064142D01*
X0042151Y0064142D01*
X0036246Y0058236D01*
X0036246Y0032646D01*
X0039827Y0032646D01*
X0039827Y0032998D01*
X0039689Y0033690D01*
X0039419Y0034342D01*
X0039027Y0034928D01*
X0038528Y0035427D01*
X0037942Y0035819D01*
X0037290Y0036089D01*
X0036598Y0036227D01*
X0036246Y0036227D01*
X0036246Y0032646D01*
X0036246Y0032646D01*
X0036246Y0032646D01*
X0039827Y0032646D01*
X0039827Y0032293D01*
X0039689Y0031601D01*
X0039419Y0030949D01*
X0039027Y0030363D01*
X0038528Y0029864D01*
X0037942Y0029472D01*
X0037290Y0029202D01*
X0036598Y0029065D01*
X0036246Y0029065D01*
X0036246Y0032646D01*
X0036246Y0036227D01*
X0035893Y0036227D01*
X0035201Y0036089D01*
X0034549Y0035819D01*
X0033963Y0035427D01*
X0033464Y0034928D01*
X0033072Y0034342D01*
X0032802Y0033690D01*
X0032665Y0032998D01*
X0032665Y0032646D01*
X0036246Y0032646D01*
X0036246Y0032646D01*
X0036246Y0032646D01*
X0036246Y0029065D01*
X0035893Y0029065D01*
X0035201Y0029202D01*
X0034549Y0029472D01*
X0033963Y0029864D01*
X0033464Y0030363D01*
X0033072Y0030949D01*
X0032802Y0031601D01*
X0032665Y0032293D01*
X0032665Y0032646D01*
X0036246Y0032646D01*
X0036246Y0032638D02*
X0036246Y0032638D01*
X0036246Y0033836D02*
X0036246Y0033836D01*
X0036246Y0035035D02*
X0036246Y0035035D01*
X0038921Y0035035D02*
X0044992Y0035035D01*
X0044992Y0035080D02*
X0044992Y0034125D01*
X0045236Y0033536D01*
X0044992Y0032947D01*
X0044992Y0031992D01*
X0045358Y0031110D01*
X0046033Y0030435D01*
X0046412Y0030278D01*
X0046033Y0030120D01*
X0045358Y0029445D01*
X0044992Y0028563D01*
X0044992Y0027608D01*
X0045358Y0026726D01*
X0045479Y0026605D01*
X0045358Y0026484D01*
X0044992Y0025601D01*
X0044992Y0022548D01*
X0045493Y0021681D01*
X0045358Y0021546D01*
X0044992Y0020664D01*
X0044992Y0019257D01*
X0045520Y0018343D01*
X0045266Y0018050D01*
X0044964Y0017144D01*
X0045032Y0016192D01*
X0045459Y0015338D01*
X0046180Y0014712D01*
X0046203Y0014705D01*
X0046180Y0014697D01*
X0045475Y0014086D01*
X0038151Y0014086D01*
X0031448Y0020789D01*
X0031448Y0020789D01*
X0030688Y0021549D01*
X0029696Y0021960D01*
X0029159Y0021960D01*
X0029959Y0021851D02*
X0045394Y0021851D01*
X0044992Y0020653D02*
X0031585Y0020653D01*
X0032783Y0019454D02*
X0044992Y0019454D01*
X0044992Y0019257D02*
X0044992Y0019257D01*
X0045445Y0018256D02*
X0033982Y0018256D01*
X0035180Y0017057D02*
X0044971Y0017057D01*
X0045199Y0015859D02*
X0036379Y0015859D01*
X0037577Y0014660D02*
X0046137Y0014660D01*
X0053794Y0021520D02*
X0054059Y0022158D01*
X0054059Y0023580D01*
X0054059Y0024986D01*
X0053288Y0026321D01*
X0053693Y0026726D01*
X0054059Y0027608D01*
X0054059Y0030696D01*
X0053790Y0031344D01*
X0054059Y0031992D01*
X0054059Y0036598D01*
X0053130Y0038207D01*
X0053130Y0038207D01*
X0053130Y0038207D01*
X0051521Y0039136D01*
X0046915Y0039136D01*
X0046033Y0038771D01*
X0045358Y0038096D01*
X0044992Y0037214D01*
X0044992Y0036259D01*
X0045236Y0035669D01*
X0044992Y0035080D01*
X0045003Y0036233D02*
X0029159Y0036233D01*
X0029159Y0035035D02*
X0033570Y0035035D01*
X0032863Y0033836D02*
X0029159Y0033836D01*
X0029159Y0032638D02*
X0032665Y0032638D01*
X0032869Y0031439D02*
X0029159Y0031439D01*
X0029159Y0030241D02*
X0033586Y0030241D01*
X0036246Y0030241D02*
X0036246Y0030241D01*
X0036246Y0031439D02*
X0036246Y0031439D01*
X0038905Y0030241D02*
X0046323Y0030241D01*
X0045221Y0031439D02*
X0039622Y0031439D01*
X0039827Y0032638D02*
X0044992Y0032638D01*
X0045112Y0033836D02*
X0039629Y0033836D01*
X0045083Y0037432D02*
X0029159Y0037432D01*
X0029159Y0038630D02*
X0045892Y0038630D01*
X0052397Y0038630D02*
X0055745Y0038630D01*
X0055858Y0038903D02*
X0055492Y0038020D01*
X0055492Y0037066D01*
X0055858Y0036184D01*
X0055948Y0036093D01*
X0055858Y0036003D01*
X0055492Y0035121D01*
X0055492Y0031937D01*
X0056090Y0030902D01*
X0055858Y0030670D01*
X0055492Y0029788D01*
X0055492Y0026704D01*
X0055445Y0026468D01*
X0055492Y0026231D01*
X0055492Y0025988D01*
X0055584Y0025767D01*
X0055630Y0025532D01*
X0055765Y0025331D01*
X0055492Y0024673D01*
X0055492Y0023718D01*
X0055807Y0022958D01*
X0055492Y0022198D01*
X0055492Y0020814D01*
X0055152Y0021154D01*
X0054270Y0021520D01*
X0053794Y0021520D01*
X0053932Y0021851D02*
X0055492Y0021851D01*
X0055769Y0023050D02*
X0054059Y0023050D01*
X0054059Y0023580D02*
X0054059Y0023580D01*
X0054059Y0024248D02*
X0055492Y0024248D01*
X0055687Y0025447D02*
X0053793Y0025447D01*
X0053612Y0026645D02*
X0055480Y0026645D01*
X0055492Y0027844D02*
X0054059Y0027844D01*
X0054059Y0029042D02*
X0055492Y0029042D01*
X0055680Y0030241D02*
X0054059Y0030241D01*
X0053830Y0031439D02*
X0055780Y0031439D01*
X0055492Y0032638D02*
X0054059Y0032638D01*
X0054059Y0033836D02*
X0055492Y0033836D01*
X0055492Y0035035D02*
X0054059Y0035035D01*
X0054059Y0036233D02*
X0055837Y0036233D01*
X0055492Y0037432D02*
X0053578Y0037432D01*
X0055858Y0038903D02*
X0055920Y0038965D01*
X0055858Y0039028D01*
X0055492Y0039910D01*
X0055492Y0040865D01*
X0055552Y0041008D01*
X0055281Y0041008D01*
X0054399Y0041374D01*
X0053724Y0042049D01*
X0053359Y0042931D01*
X0053359Y0044353D01*
X0053359Y0044353D01*
X0053359Y0044831D01*
X0053359Y0045760D01*
X0053359Y0045760D01*
X0054288Y0047368D01*
X0054288Y0047368D01*
X0055828Y0048257D01*
X0055512Y0049133D01*
X0055512Y0049133D01*
X0055499Y0050064D01*
X0055499Y0050064D01*
X0055492Y0050542D01*
X0055479Y0051488D01*
X0055479Y0051488D01*
X0056453Y0053111D01*
X0056453Y0053111D01*
X0056453Y0053111D01*
X0057981Y0053896D01*
X0057981Y0058807D01*
X0058346Y0059689D01*
X0059022Y0060365D01*
X0059904Y0060730D01*
X0060858Y0060730D01*
X0061740Y0060365D01*
X0062416Y0059689D01*
X0062781Y0058807D01*
X0062781Y0053586D01*
X0062681Y0053343D01*
X0063100Y0053184D01*
X0063796Y0052530D01*
X0063992Y0052095D01*
X0064539Y0050878D01*
X0064539Y0050878D01*
X0064552Y0050021D01*
X0064552Y0050021D01*
X0064558Y0049597D01*
X0064559Y0049543D01*
X0064565Y0049066D01*
X0064565Y0049066D01*
X0064572Y0048597D01*
X0064572Y0048597D01*
X0063927Y0047523D01*
X0064193Y0047257D01*
X0064559Y0046375D01*
X0064559Y0043191D01*
X0063710Y0041720D01*
X0064559Y0040250D01*
X0064559Y0037066D01*
X0064193Y0036184D01*
X0064103Y0036093D01*
X0064193Y0036003D01*
X0064559Y0035121D01*
X0064559Y0034166D01*
X0064193Y0033284D01*
X0064131Y0033222D01*
X0064193Y0033159D01*
X0064559Y0032277D01*
X0064559Y0031322D01*
X0064241Y0030555D01*
X0064286Y0030446D01*
X0064420Y0030244D01*
X0064467Y0030009D01*
X0064559Y0029788D01*
X0064559Y0029545D01*
X0064606Y0029308D01*
X0064559Y0029073D01*
X0064559Y0026773D01*
X0064770Y0026773D01*
X0065652Y0026408D01*
X0066327Y0025733D01*
X0066692Y0024851D01*
X0066692Y0023541D01*
X0066327Y0022658D01*
X0065652Y0021983D01*
X0064770Y0021618D01*
X0064388Y0021618D01*
X0064559Y0021322D01*
X0064559Y0019274D01*
X0064127Y0018527D01*
X0064770Y0018527D01*
X0065652Y0018162D01*
X0066327Y0017487D01*
X0066692Y0016604D01*
X0066692Y0015650D01*
X0066327Y0014768D01*
X0065908Y0014349D01*
X0066172Y0014086D01*
X0075426Y0014086D01*
X0075311Y0014201D01*
X0074641Y0015818D01*
X0074641Y0023568D01*
X0075311Y0025185D01*
X0076549Y0026423D01*
X0078166Y0027093D01*
X0079916Y0027093D01*
X0081533Y0026423D01*
X0082771Y0025185D01*
X0083441Y0023568D01*
X0083441Y0015818D01*
X0082771Y0014201D01*
X0082656Y0014086D01*
X0085426Y0014086D01*
X0085311Y0014201D01*
X0084641Y0015818D01*
X0084641Y0023568D01*
X0085311Y0025185D01*
X0086189Y0026063D01*
X0085966Y0026286D01*
X0085420Y0027603D01*
X0085420Y0029027D01*
X0085966Y0030343D01*
X0086973Y0031351D01*
X0088289Y0031896D01*
X0089714Y0031896D01*
X0091030Y0031351D01*
X0092037Y0030343D01*
X0092583Y0029027D01*
X0092583Y0027603D01*
X0092037Y0026286D01*
X0091854Y0026103D01*
X0092771Y0025185D01*
X0093441Y0023568D01*
X0093441Y0015818D01*
X0092771Y0014201D01*
X0092656Y0014086D01*
X0095426Y0014086D01*
X0095311Y0014201D01*
X0094641Y0015818D01*
X0094641Y0023568D01*
X0095311Y0025185D01*
X0096307Y0026181D01*
X0096202Y0026286D01*
X0095657Y0027603D01*
X0095657Y0029027D01*
X0096202Y0030343D01*
X0097209Y0031351D01*
X0098525Y0031896D01*
X0099950Y0031896D01*
X0101266Y0031351D01*
X0102274Y0030343D01*
X0102819Y0029027D01*
X0102819Y0027603D01*
X0102274Y0026286D01*
X0101972Y0025985D01*
X0102771Y0025185D01*
X0103441Y0023568D01*
X0103441Y0015818D01*
X0102771Y0014201D01*
X0102656Y0014086D01*
X0105249Y0014086D01*
X0105107Y0014282D01*
X0104778Y0014927D01*
X0104554Y0015616D01*
X0104441Y0016331D01*
X0104441Y0019293D01*
X0108641Y0019293D01*
X0108641Y0020093D01*
X0108641Y0027287D01*
X0107964Y0027180D01*
X0107275Y0026956D01*
X0106630Y0026627D01*
X0106044Y0026202D01*
X0105532Y0025690D01*
X0105107Y0025104D01*
X0104778Y0024459D01*
X0104554Y0023770D01*
X0104441Y0023055D01*
X0104441Y0020093D01*
X0108641Y0020093D01*
X0109441Y0020093D01*
X0109441Y0027287D01*
X0110118Y0027180D01*
X0110807Y0026956D01*
X0111452Y0026627D01*
X0112038Y0026202D01*
X0112550Y0025690D01*
X0112975Y0025104D01*
X0113304Y0024459D01*
X0113528Y0023770D01*
X0113641Y0023055D01*
X0113641Y0020093D01*
X0109441Y0020093D01*
X0109441Y0019293D01*
X0113641Y0019293D01*
X0113641Y0016331D01*
X0113528Y0015616D01*
X0113304Y0014927D01*
X0112975Y0014282D01*
X0112833Y0014086D01*
X0115426Y0014086D01*
X0115311Y0014201D01*
X0114641Y0015818D01*
X0114641Y0023568D01*
X0115311Y0025185D01*
X0116341Y0026215D01*
X0116341Y0032525D01*
X0115887Y0032979D01*
X0115342Y0034296D01*
X0115342Y0035720D01*
X0115887Y0037036D01*
X0116894Y0038044D01*
X0118210Y0038589D01*
X0119635Y0038589D01*
X0120951Y0038044D01*
X0121959Y0037036D01*
X0122504Y0035720D01*
X0122504Y0034296D01*
X0121959Y0032979D01*
X0121741Y0032762D01*
X0121741Y0026215D01*
X0122771Y0025185D01*
X0123441Y0023568D01*
X0123441Y0015818D01*
X0122771Y0014201D01*
X0122656Y0014086D01*
X0125426Y0014086D01*
X0125311Y0014201D01*
X0124641Y0015818D01*
X0124641Y0023568D01*
X0125311Y0025185D01*
X0126459Y0026334D01*
X0126459Y0037433D01*
X0124891Y0039001D01*
X0111693Y0039001D01*
X0110700Y0039412D01*
X0109941Y0040171D01*
X0106791Y0043321D01*
X0106380Y0044313D01*
X0106380Y0065714D01*
X0106324Y0065770D01*
X0105851Y0065297D01*
X0105265Y0064905D01*
X0104613Y0064635D01*
X0103921Y0064498D01*
X0103569Y0064498D01*
X0103569Y0068079D01*
X0103568Y0068079D01*
X0103568Y0068593D02*
X0103569Y0068593D01*
X0103568Y0067395D02*
X0103569Y0067395D01*
X0103568Y0066196D02*
X0103569Y0066196D01*
X0103568Y0064997D02*
X0103569Y0064997D01*
X0103569Y0063748D02*
X0103569Y0045244D01*
X0109080Y0039732D01*
X0109080Y0019732D01*
X0109041Y0019693D01*
X0109441Y0019454D02*
X0114641Y0019454D01*
X0114641Y0018256D02*
X0113641Y0018256D01*
X0113641Y0017057D02*
X0114641Y0017057D01*
X0114641Y0015859D02*
X0113566Y0015859D01*
X0113168Y0014660D02*
X0115120Y0014660D01*
X0119041Y0019693D02*
X0119041Y0034890D01*
X0118923Y0035008D01*
X0115342Y0035035D02*
X0064559Y0035035D01*
X0064422Y0033836D02*
X0115532Y0033836D01*
X0116229Y0032638D02*
X0064409Y0032638D01*
X0064559Y0031439D02*
X0087186Y0031439D01*
X0085923Y0030241D02*
X0064421Y0030241D01*
X0064559Y0029042D02*
X0085427Y0029042D01*
X0085420Y0027844D02*
X0064559Y0027844D01*
X0065079Y0026645D02*
X0077085Y0026645D01*
X0075572Y0025447D02*
X0066445Y0025447D01*
X0066692Y0024248D02*
X0074923Y0024248D01*
X0074641Y0023050D02*
X0066489Y0023050D01*
X0065332Y0021851D02*
X0074641Y0021851D01*
X0074641Y0020653D02*
X0064559Y0020653D01*
X0064559Y0019454D02*
X0074641Y0019454D01*
X0074641Y0018256D02*
X0065425Y0018256D01*
X0066505Y0017057D02*
X0074641Y0017057D01*
X0074641Y0015859D02*
X0066692Y0015859D01*
X0066219Y0014660D02*
X0075120Y0014660D01*
X0082961Y0014660D02*
X0085120Y0014660D01*
X0084641Y0015859D02*
X0083441Y0015859D01*
X0083441Y0017057D02*
X0084641Y0017057D01*
X0084641Y0018256D02*
X0083441Y0018256D01*
X0083441Y0019454D02*
X0084641Y0019454D01*
X0084641Y0020653D02*
X0083441Y0020653D01*
X0083441Y0021851D02*
X0084641Y0021851D01*
X0084641Y0023050D02*
X0083441Y0023050D01*
X0083159Y0024248D02*
X0084923Y0024248D01*
X0085572Y0025447D02*
X0082510Y0025447D01*
X0080997Y0026645D02*
X0085817Y0026645D01*
X0089002Y0028315D02*
X0089041Y0028276D01*
X0089041Y0019693D01*
X0093441Y0019454D02*
X0094641Y0019454D01*
X0094641Y0018256D02*
X0093441Y0018256D01*
X0093441Y0017057D02*
X0094641Y0017057D01*
X0094641Y0015859D02*
X0093441Y0015859D01*
X0092961Y0014660D02*
X0095120Y0014660D01*
X0099041Y0019693D02*
X0099041Y0028118D01*
X0099238Y0028315D01*
X0102422Y0026645D02*
X0106665Y0026645D01*
X0105356Y0025447D02*
X0102510Y0025447D01*
X0103159Y0024248D02*
X0104710Y0024248D01*
X0104441Y0023050D02*
X0103441Y0023050D01*
X0103441Y0021851D02*
X0104441Y0021851D01*
X0104441Y0020653D02*
X0103441Y0020653D01*
X0103441Y0019454D02*
X0108641Y0019454D01*
X0108641Y0020653D02*
X0109441Y0020653D01*
X0109441Y0021851D02*
X0108641Y0021851D01*
X0108641Y0023050D02*
X0109441Y0023050D01*
X0109441Y0024248D02*
X0108641Y0024248D01*
X0108641Y0025447D02*
X0109441Y0025447D01*
X0109441Y0026645D02*
X0108641Y0026645D01*
X0111417Y0026645D02*
X0116341Y0026645D01*
X0116341Y0027844D02*
X0102819Y0027844D01*
X0102813Y0029042D02*
X0116341Y0029042D01*
X0116341Y0030241D02*
X0102316Y0030241D01*
X0101053Y0031439D02*
X0116341Y0031439D01*
X0121741Y0031439D02*
X0126459Y0031439D01*
X0126459Y0030241D02*
X0121741Y0030241D01*
X0121741Y0029042D02*
X0126459Y0029042D01*
X0126459Y0027844D02*
X0121741Y0027844D01*
X0121741Y0026645D02*
X0126459Y0026645D01*
X0125572Y0025447D02*
X0122510Y0025447D01*
X0123159Y0024248D02*
X0124923Y0024248D01*
X0124641Y0023050D02*
X0123441Y0023050D01*
X0123441Y0021851D02*
X0124641Y0021851D01*
X0124641Y0020653D02*
X0123441Y0020653D01*
X0123441Y0019454D02*
X0124641Y0019454D01*
X0124641Y0018256D02*
X0123441Y0018256D01*
X0123441Y0017057D02*
X0124641Y0017057D01*
X0124641Y0015859D02*
X0123441Y0015859D01*
X0122961Y0014660D02*
X0125120Y0014660D01*
X0129041Y0019693D02*
X0129159Y0019811D01*
X0129159Y0038551D01*
X0126009Y0041701D01*
X0112230Y0041701D01*
X0109080Y0044850D01*
X0109080Y0068079D01*
X0112247Y0069792D02*
X0140632Y0069792D01*
X0140632Y0070990D02*
X0111233Y0070990D01*
X0112661Y0068593D02*
X0140632Y0068593D01*
X0140632Y0067395D02*
X0112661Y0067395D01*
X0112177Y0066196D02*
X0140632Y0066196D01*
X0140632Y0064997D02*
X0111780Y0064997D01*
X0111780Y0063799D02*
X0140632Y0063799D01*
X0140632Y0062600D02*
X0111780Y0062600D01*
X0111780Y0061402D02*
X0140632Y0061402D01*
X0140632Y0060203D02*
X0111780Y0060203D01*
X0111780Y0059005D02*
X0140632Y0059005D01*
X0140632Y0057806D02*
X0111780Y0057806D01*
X0111780Y0056608D02*
X0140632Y0056608D01*
X0140632Y0055409D02*
X0111780Y0055409D01*
X0111780Y0054211D02*
X0140632Y0054211D01*
X0140632Y0053012D02*
X0111780Y0053012D01*
X0111780Y0051814D02*
X0140632Y0051814D01*
X0140632Y0050615D02*
X0111780Y0050615D01*
X0111780Y0049417D02*
X0140632Y0049417D01*
X0140632Y0048218D02*
X0111780Y0048218D01*
X0111780Y0047020D02*
X0140632Y0047020D01*
X0140632Y0045821D02*
X0111928Y0045821D01*
X0113126Y0044623D02*
X0140632Y0044623D01*
X0140632Y0043424D02*
X0128104Y0043424D01*
X0129303Y0042226D02*
X0140682Y0042226D01*
X0141369Y0041027D02*
X0130501Y0041027D01*
X0131552Y0039829D02*
X0143332Y0039829D01*
X0143332Y0038630D02*
X0131859Y0038630D01*
X0131859Y0037432D02*
X0143332Y0037432D01*
X0143332Y0036233D02*
X0131859Y0036233D01*
X0131859Y0035035D02*
X0143332Y0035035D01*
X0143332Y0033836D02*
X0131859Y0033836D01*
X0131859Y0032638D02*
X0143332Y0032638D01*
X0143332Y0031439D02*
X0131859Y0031439D01*
X0131859Y0030241D02*
X0143332Y0030241D01*
X0143332Y0029042D02*
X0131859Y0029042D01*
X0131859Y0027844D02*
X0143332Y0027844D01*
X0143332Y0026645D02*
X0131859Y0026645D01*
X0132510Y0025447D02*
X0143332Y0025447D01*
X0143332Y0024248D02*
X0133159Y0024248D01*
X0133441Y0023050D02*
X0143332Y0023050D01*
X0142533Y0021851D02*
X0133441Y0021851D01*
X0133441Y0020653D02*
X0140907Y0020653D01*
X0141043Y0020789D02*
X0141043Y0020789D01*
X0139708Y0019454D02*
X0133441Y0019454D01*
X0133441Y0018256D02*
X0138510Y0018256D01*
X0137311Y0017057D02*
X0133441Y0017057D01*
X0133441Y0015859D02*
X0136113Y0015859D01*
X0134914Y0014660D02*
X0132961Y0014660D01*
X0115572Y0025447D02*
X0112726Y0025447D01*
X0113372Y0024248D02*
X0114923Y0024248D01*
X0114641Y0023050D02*
X0113641Y0023050D01*
X0113641Y0021851D02*
X0114641Y0021851D01*
X0114641Y0020653D02*
X0113641Y0020653D01*
X0104441Y0018256D02*
X0103441Y0018256D01*
X0103441Y0017057D02*
X0104441Y0017057D01*
X0104516Y0015859D02*
X0103441Y0015859D01*
X0102961Y0014660D02*
X0104914Y0014660D01*
X0094641Y0020653D02*
X0093441Y0020653D01*
X0093441Y0021851D02*
X0094641Y0021851D01*
X0094641Y0023050D02*
X0093441Y0023050D01*
X0093159Y0024248D02*
X0094923Y0024248D01*
X0095572Y0025447D02*
X0092510Y0025447D01*
X0092186Y0026645D02*
X0096053Y0026645D01*
X0095657Y0027844D02*
X0092583Y0027844D01*
X0092577Y0029042D02*
X0095663Y0029042D01*
X0096159Y0030241D02*
X0092080Y0030241D01*
X0090817Y0031439D02*
X0097422Y0031439D01*
X0110284Y0039829D02*
X0064559Y0039829D01*
X0064559Y0038630D02*
X0125262Y0038630D01*
X0126459Y0037432D02*
X0121563Y0037432D01*
X0122291Y0036233D02*
X0126459Y0036233D01*
X0126459Y0035035D02*
X0122504Y0035035D01*
X0122314Y0033836D02*
X0126459Y0033836D01*
X0126459Y0032638D02*
X0121741Y0032638D01*
X0115554Y0036233D02*
X0064214Y0036233D01*
X0064559Y0037432D02*
X0116282Y0037432D01*
X0109085Y0041027D02*
X0064110Y0041027D01*
X0064002Y0042226D02*
X0072402Y0042226D01*
X0072620Y0042135D02*
X0071304Y0042681D01*
X0070296Y0043688D01*
X0069751Y0045004D01*
X0069751Y0046429D01*
X0070296Y0047745D01*
X0071304Y0048752D01*
X0072620Y0049298D01*
X0074045Y0049298D01*
X0075361Y0048752D01*
X0075775Y0048338D01*
X0079944Y0048338D01*
X0080280Y0048674D01*
X0081596Y0049219D01*
X0083021Y0049219D01*
X0084337Y0048674D01*
X0085345Y0047666D01*
X0085890Y0046350D01*
X0085890Y0044925D01*
X0085345Y0043609D01*
X0084337Y0042602D01*
X0083021Y0042057D01*
X0081596Y0042057D01*
X0080280Y0042602D01*
X0079944Y0042938D01*
X0075618Y0042938D01*
X0075361Y0042681D01*
X0074045Y0042135D01*
X0072620Y0042135D01*
X0074263Y0042226D02*
X0081188Y0042226D01*
X0083429Y0042226D02*
X0107887Y0042226D01*
X0106749Y0043424D02*
X0085160Y0043424D01*
X0085764Y0044623D02*
X0106380Y0044623D01*
X0106380Y0045821D02*
X0085890Y0045821D01*
X0085612Y0047020D02*
X0106380Y0047020D01*
X0106380Y0048218D02*
X0084793Y0048218D01*
X0082309Y0045638D02*
X0073647Y0045638D01*
X0073332Y0045953D01*
X0073332Y0045717D01*
X0073332Y0045953D02*
X0073254Y0046031D01*
X0070770Y0048218D02*
X0064345Y0048218D01*
X0064292Y0047020D02*
X0069996Y0047020D01*
X0069751Y0045821D02*
X0064559Y0045821D01*
X0064559Y0044623D02*
X0069909Y0044623D01*
X0070560Y0043424D02*
X0064559Y0043424D01*
X0064560Y0049417D02*
X0106380Y0049417D01*
X0106380Y0050615D02*
X0064543Y0050615D01*
X0064118Y0051814D02*
X0106380Y0051814D01*
X0106380Y0053012D02*
X0063283Y0053012D01*
X0062781Y0054211D02*
X0106380Y0054211D01*
X0106380Y0055409D02*
X0062781Y0055409D01*
X0062781Y0056608D02*
X0106380Y0056608D01*
X0106380Y0057806D02*
X0062781Y0057806D01*
X0062699Y0059005D02*
X0106380Y0059005D01*
X0106380Y0060203D02*
X0061902Y0060203D01*
X0058860Y0060203D02*
X0031859Y0060203D01*
X0031859Y0059005D02*
X0058063Y0059005D01*
X0057981Y0057806D02*
X0031859Y0057806D01*
X0031859Y0056608D02*
X0057981Y0056608D01*
X0057981Y0055409D02*
X0031859Y0055409D01*
X0031859Y0054211D02*
X0057981Y0054211D01*
X0056394Y0053012D02*
X0031859Y0053012D01*
X0031859Y0051814D02*
X0055675Y0051814D01*
X0055491Y0050615D02*
X0031859Y0050615D01*
X0031859Y0049417D02*
X0055508Y0049417D01*
X0055760Y0048218D02*
X0031859Y0048218D01*
X0031859Y0047020D02*
X0054086Y0047020D01*
X0053394Y0045821D02*
X0031859Y0045821D01*
X0031859Y0044623D02*
X0053359Y0044623D01*
X0053359Y0043424D02*
X0031859Y0043424D01*
X0031810Y0042226D02*
X0053651Y0042226D01*
X0055236Y0041027D02*
X0031123Y0041027D01*
X0029159Y0039829D02*
X0055526Y0039829D01*
X0045191Y0029042D02*
X0029159Y0029042D01*
X0029159Y0027844D02*
X0044992Y0027844D01*
X0045439Y0026645D02*
X0029159Y0026645D01*
X0029159Y0025447D02*
X0044992Y0025447D01*
X0044992Y0024248D02*
X0029159Y0024248D01*
X0029159Y0023050D02*
X0044992Y0023050D01*
X0031859Y0061402D02*
X0081165Y0061402D01*
X0081207Y0061360D02*
X0081793Y0060968D01*
X0082445Y0060698D01*
X0083137Y0060561D01*
X0083490Y0060561D01*
X0083490Y0064142D01*
X0083490Y0064142D01*
X0083490Y0064142D01*
X0079909Y0064142D01*
X0079909Y0063789D01*
X0080046Y0063097D01*
X0080316Y0062445D01*
X0080708Y0061859D01*
X0081207Y0061360D01*
X0080252Y0062600D02*
X0031859Y0062600D01*
X0031859Y0063799D02*
X0079909Y0063799D01*
X0080009Y0064997D02*
X0031859Y0064997D01*
X0031859Y0066196D02*
X0080555Y0066196D01*
X0081985Y0067395D02*
X0031859Y0067395D01*
X0031859Y0068593D02*
X0100020Y0068593D01*
X0100053Y0067395D02*
X0084995Y0067395D01*
X0083490Y0067395D02*
X0083490Y0067395D01*
X0083490Y0066196D02*
X0083490Y0066196D01*
X0083490Y0064997D02*
X0083490Y0064997D01*
X0083490Y0063799D02*
X0083490Y0063799D01*
X0083490Y0062600D02*
X0083490Y0062600D01*
X0083490Y0061402D02*
X0083490Y0061402D01*
X0085814Y0061402D02*
X0106380Y0061402D01*
X0106380Y0062600D02*
X0086727Y0062600D01*
X0087071Y0063799D02*
X0106380Y0063799D01*
X0106380Y0064997D02*
X0105403Y0064997D01*
X0101734Y0064997D02*
X0086971Y0064997D01*
X0086424Y0066196D02*
X0100520Y0066196D01*
X0100406Y0069792D02*
X0031859Y0069792D01*
X0031859Y0070990D02*
X0101480Y0070990D01*
X0103568Y0070990D02*
X0103569Y0070990D01*
X0103568Y0069792D02*
X0103569Y0069792D01*
X0105657Y0070990D02*
X0106927Y0070990D01*
X0106118Y0079143D02*
X0104501Y0079813D01*
X0103264Y0081051D01*
X0102594Y0082668D01*
X0102594Y0090419D01*
X0103264Y0092036D01*
X0104501Y0093273D01*
X0106118Y0093943D01*
X0107869Y0093943D01*
X0109486Y0093273D01*
X0110724Y0092036D01*
X0111394Y0090419D01*
X0111394Y0082668D01*
X0110724Y0081051D01*
X0109486Y0079813D01*
X0107869Y0079143D01*
X0106118Y0079143D01*
X0105548Y0079380D02*
X0098439Y0079380D01*
X0097869Y0079143D02*
X0099486Y0079813D01*
X0100724Y0081051D01*
X0101394Y0082668D01*
X0101394Y0090419D01*
X0100724Y0092036D01*
X0099694Y0093066D01*
X0099694Y0094906D01*
X0118198Y0094906D01*
X0119491Y0093614D01*
X0119491Y0093066D01*
X0118460Y0092036D01*
X0117791Y0090419D01*
X0117791Y0082668D01*
X0118460Y0081051D01*
X0119698Y0079813D01*
X0121315Y0079143D01*
X0123066Y0079143D01*
X0124683Y0079813D01*
X0125921Y0081051D01*
X0126591Y0082668D01*
X0126591Y0090419D01*
X0125921Y0092036D01*
X0124891Y0093066D01*
X0124891Y0095269D01*
X0124479Y0096262D01*
X0121605Y0099136D01*
X0120846Y0099895D01*
X0119854Y0100306D01*
X0076260Y0100306D01*
X0075267Y0099895D01*
X0074508Y0099136D01*
X0071043Y0095671D01*
X0070632Y0094679D01*
X0070632Y0083042D01*
X0070296Y0082706D01*
X0069751Y0081389D01*
X0069751Y0079965D01*
X0070296Y0078649D01*
X0071304Y0077641D01*
X0072620Y0077096D01*
X0074045Y0077096D01*
X0075361Y0077641D01*
X0076368Y0078649D01*
X0076913Y0079965D01*
X0076913Y0081389D01*
X0076368Y0082706D01*
X0076032Y0083042D01*
X0076032Y0093023D01*
X0077915Y0094906D01*
X0094294Y0094906D01*
X0094294Y0093066D01*
X0093264Y0092036D01*
X0092594Y0090419D01*
X0092594Y0082668D01*
X0093264Y0081051D01*
X0094501Y0079813D01*
X0096118Y0079143D01*
X0097869Y0079143D01*
X0095548Y0079380D02*
X0076671Y0079380D01*
X0076913Y0080578D02*
X0093736Y0080578D01*
X0092963Y0081777D02*
X0076753Y0081777D01*
X0076099Y0082975D02*
X0092594Y0082975D01*
X0092594Y0084174D02*
X0076032Y0084174D01*
X0076032Y0085372D02*
X0092594Y0085372D01*
X0092594Y0086571D02*
X0076032Y0086571D01*
X0076032Y0087769D02*
X0092594Y0087769D01*
X0092594Y0088968D02*
X0076032Y0088968D01*
X0076032Y0090166D02*
X0092594Y0090166D01*
X0092986Y0091365D02*
X0076032Y0091365D01*
X0076032Y0092563D02*
X0093791Y0092563D01*
X0094294Y0093762D02*
X0076771Y0093762D01*
X0073332Y0094142D02*
X0076797Y0097606D01*
X0097269Y0097606D01*
X0096994Y0097331D01*
X0096994Y0086543D01*
X0101394Y0086571D02*
X0102594Y0086571D01*
X0102594Y0087769D02*
X0101394Y0087769D01*
X0101394Y0088968D02*
X0102594Y0088968D01*
X0102594Y0090166D02*
X0101394Y0090166D01*
X0101002Y0091365D02*
X0102986Y0091365D01*
X0103791Y0092563D02*
X0100196Y0092563D01*
X0099694Y0093762D02*
X0105680Y0093762D01*
X0108307Y0093762D02*
X0119343Y0093762D01*
X0118988Y0092563D02*
X0110196Y0092563D01*
X0111002Y0091365D02*
X0118182Y0091365D01*
X0117791Y0090166D02*
X0111394Y0090166D01*
X0111394Y0088968D02*
X0117791Y0088968D01*
X0117791Y0087769D02*
X0111394Y0087769D01*
X0111394Y0086571D02*
X0117791Y0086571D01*
X0117791Y0085372D02*
X0111394Y0085372D01*
X0111394Y0084174D02*
X0117791Y0084174D01*
X0117791Y0082975D02*
X0111394Y0082975D01*
X0111024Y0081777D02*
X0118160Y0081777D01*
X0118933Y0080578D02*
X0110251Y0080578D01*
X0108439Y0079380D02*
X0120745Y0079380D01*
X0123636Y0079380D02*
X0130745Y0079380D01*
X0131315Y0079143D02*
X0129698Y0079813D01*
X0128460Y0081051D01*
X0127791Y0082668D01*
X0127791Y0090419D01*
X0128460Y0092036D01*
X0129698Y0093273D01*
X0131315Y0093943D01*
X0133066Y0093943D01*
X0134683Y0093273D01*
X0135921Y0092036D01*
X0136591Y0090419D01*
X0136591Y0082668D01*
X0135921Y0081051D01*
X0134683Y0079813D01*
X0133066Y0079143D01*
X0131315Y0079143D01*
X0133636Y0079380D02*
X0140851Y0079380D01*
X0140632Y0078181D02*
X0075901Y0078181D01*
X0073332Y0080677D02*
X0073332Y0094142D01*
X0070749Y0094960D02*
X0062053Y0094960D01*
X0062055Y0094954D02*
X0061985Y0095122D01*
X0061773Y0095334D01*
X0061595Y0095575D01*
X0061439Y0095669D01*
X0061310Y0095798D01*
X0061033Y0095912D01*
X0060776Y0096067D01*
X0060596Y0096093D01*
X0060428Y0096163D01*
X0060128Y0096163D01*
X0059832Y0096207D01*
X0059655Y0096163D01*
X0059473Y0096163D01*
X0059196Y0096048D01*
X0058906Y0095976D01*
X0058759Y0095867D01*
X0058591Y0095798D01*
X0058379Y0095586D01*
X0058138Y0095407D01*
X0058045Y0095251D01*
X0057916Y0095122D01*
X0057818Y0094884D01*
X0057719Y0095122D01*
X0057590Y0095251D01*
X0057497Y0095407D01*
X0057256Y0095586D01*
X0057044Y0095798D01*
X0056876Y0095867D01*
X0056729Y0095976D01*
X0056439Y0096048D01*
X0056162Y0096163D01*
X0055980Y0096163D01*
X0055803Y0096207D01*
X0055507Y0096163D01*
X0055207Y0096163D01*
X0055039Y0096093D01*
X0054859Y0096067D01*
X0054602Y0095912D01*
X0054325Y0095798D01*
X0054196Y0095669D01*
X0054090Y0095605D01*
X0053897Y0095798D01*
X0053015Y0096163D01*
X0052060Y0096163D01*
X0051178Y0095798D01*
X0050758Y0095377D01*
X0050437Y0095731D01*
X0049573Y0096138D01*
X0048619Y0096183D01*
X0047721Y0095860D01*
X0047014Y0095218D01*
X0046988Y0095161D01*
X0046497Y0095554D01*
X0046254Y0095798D01*
X0046127Y0095850D01*
X0046021Y0095935D01*
X0045690Y0096031D01*
X0045371Y0096163D01*
X0045235Y0096163D01*
X0045103Y0096201D01*
X0044761Y0096163D01*
X0044417Y0096163D01*
X0044290Y0096111D01*
X0044155Y0096096D01*
X0043853Y0095929D01*
X0043535Y0095798D01*
X0043438Y0095701D01*
X0043318Y0095635D01*
X0043103Y0095366D01*
X0042859Y0095122D01*
X0042807Y0094996D01*
X0042722Y0094889D01*
X0042626Y0094559D01*
X0042494Y0094240D01*
X0042494Y0094104D01*
X0042456Y0093972D01*
X0042494Y0093630D01*
X0042494Y0089703D01*
X0041757Y0089398D01*
X0041082Y0088722D01*
X0040716Y0087840D01*
X0040716Y0086886D01*
X0041082Y0086003D01*
X0041603Y0085482D01*
X0039919Y0084279D01*
X0039581Y0083293D01*
X0039263Y0082640D01*
X0038870Y0080937D01*
X0038870Y0079189D01*
X0039263Y0077486D01*
X0039263Y0077486D01*
X0039581Y0076833D01*
X0039919Y0075847D01*
X0041857Y0074463D01*
X0044239Y0074463D01*
X0045373Y0075273D01*
X0045818Y0074828D01*
X0046700Y0074463D01*
X0048011Y0074463D01*
X0048710Y0074752D01*
X0049408Y0074463D01*
X0053919Y0074463D01*
X0054801Y0074828D01*
X0055476Y0075503D01*
X0055623Y0075858D01*
X0055692Y0075651D01*
X0055806Y0075519D01*
X0055884Y0075363D01*
X0056116Y0075162D01*
X0056317Y0074930D01*
X0056474Y0074852D01*
X0056606Y0074737D01*
X0056897Y0074640D01*
X0057171Y0074503D01*
X0057346Y0074490D01*
X0057511Y0074435D01*
X0057817Y0074457D01*
X0058124Y0074435D01*
X0058289Y0074490D01*
X0058464Y0074503D01*
X0058738Y0074640D01*
X0059029Y0074737D01*
X0059161Y0074852D01*
X0059318Y0074930D01*
X0059519Y0075162D01*
X0059751Y0075363D01*
X0059829Y0075519D01*
X0059943Y0075651D01*
X0060040Y0075942D01*
X0060178Y0076217D01*
X0060190Y0076391D01*
X0062379Y0082957D01*
X0062311Y0083909D01*
X0061884Y0084763D01*
X0061258Y0085307D01*
X0061310Y0085328D01*
X0061985Y0086003D01*
X0062351Y0086886D01*
X0062351Y0093585D01*
X0062395Y0093882D01*
X0062351Y0094058D01*
X0062351Y0094240D01*
X0062236Y0094517D01*
X0062163Y0094808D01*
X0062055Y0094954D01*
X0062377Y0093762D02*
X0070632Y0093762D01*
X0070632Y0092563D02*
X0062351Y0092563D01*
X0062351Y0091365D02*
X0070632Y0091365D01*
X0070632Y0090166D02*
X0062351Y0090166D01*
X0062351Y0088968D02*
X0070632Y0088968D01*
X0070632Y0087769D02*
X0062351Y0087769D01*
X0062220Y0086571D02*
X0070632Y0086571D01*
X0070632Y0085372D02*
X0061354Y0085372D01*
X0062179Y0084174D02*
X0070632Y0084174D01*
X0070566Y0082975D02*
X0062377Y0082975D01*
X0061985Y0081777D02*
X0069912Y0081777D01*
X0069751Y0080578D02*
X0061586Y0080578D01*
X0061186Y0079380D02*
X0069994Y0079380D01*
X0070764Y0078181D02*
X0060787Y0078181D01*
X0060387Y0076983D02*
X0140632Y0076983D01*
X0140632Y0075784D02*
X0059988Y0075784D01*
X0058629Y0074586D02*
X0140632Y0074586D01*
X0140632Y0073387D02*
X0031859Y0073387D01*
X0031859Y0072189D02*
X0140632Y0072189D01*
X0141777Y0080578D02*
X0135448Y0080578D01*
X0136221Y0081777D02*
X0143332Y0081777D01*
X0143332Y0082975D02*
X0136591Y0082975D01*
X0136591Y0084174D02*
X0143332Y0084174D01*
X0143332Y0085372D02*
X0136591Y0085372D01*
X0136591Y0086571D02*
X0143332Y0086571D01*
X0143332Y0087769D02*
X0136591Y0087769D01*
X0136591Y0088968D02*
X0143332Y0088968D01*
X0143332Y0090166D02*
X0136591Y0090166D01*
X0136199Y0091365D02*
X0143332Y0091365D01*
X0143332Y0092563D02*
X0135393Y0092563D01*
X0133504Y0093762D02*
X0143332Y0093762D01*
X0143332Y0094960D02*
X0124891Y0094960D01*
X0124891Y0093762D02*
X0130877Y0093762D01*
X0128988Y0092563D02*
X0125393Y0092563D01*
X0126199Y0091365D02*
X0128182Y0091365D01*
X0127791Y0090166D02*
X0126591Y0090166D01*
X0126591Y0088968D02*
X0127791Y0088968D01*
X0127791Y0087769D02*
X0126591Y0087769D01*
X0126591Y0086571D02*
X0127791Y0086571D01*
X0127791Y0085372D02*
X0126591Y0085372D01*
X0126591Y0084174D02*
X0127791Y0084174D01*
X0127791Y0082975D02*
X0126591Y0082975D01*
X0126221Y0081777D02*
X0128160Y0081777D01*
X0128933Y0080578D02*
X0125448Y0080578D01*
X0122191Y0086543D02*
X0122191Y0094732D01*
X0119317Y0097606D01*
X0097269Y0097606D01*
X0101394Y0085372D02*
X0102594Y0085372D01*
X0102594Y0084174D02*
X0101394Y0084174D01*
X0101394Y0082975D02*
X0102594Y0082975D01*
X0102963Y0081777D02*
X0101024Y0081777D01*
X0100251Y0080578D02*
X0103736Y0080578D01*
X0124522Y0096159D02*
X0143332Y0096159D01*
X0143332Y0097357D02*
X0123384Y0097357D01*
X0122185Y0098556D02*
X0143332Y0098556D01*
X0141697Y0099754D02*
X0120987Y0099754D01*
X0134506Y0106945D02*
X0037986Y0106945D01*
X0036787Y0105747D02*
X0135704Y0105747D01*
X0136903Y0104548D02*
X0035589Y0104548D01*
X0034390Y0103350D02*
X0138101Y0103350D01*
X0139300Y0102151D02*
X0033192Y0102151D01*
X0031993Y0100953D02*
X0140498Y0100953D01*
X0075126Y0099754D02*
X0030795Y0099754D01*
X0031448Y0100408D02*
X0031448Y0100408D01*
X0029159Y0098556D02*
X0073928Y0098556D01*
X0072729Y0097357D02*
X0029159Y0097357D01*
X0029159Y0096159D02*
X0044406Y0096159D01*
X0045382Y0096159D02*
X0048552Y0096159D01*
X0049128Y0096159D02*
X0052050Y0096159D01*
X0053025Y0096159D02*
X0055197Y0096159D01*
X0056172Y0096159D02*
X0059463Y0096159D01*
X0060438Y0096159D02*
X0071531Y0096159D01*
X0057849Y0094960D02*
X0057786Y0094960D01*
X0042778Y0094960D02*
X0029159Y0094960D01*
X0029159Y0093762D02*
X0042479Y0093762D01*
X0042494Y0092563D02*
X0029159Y0092563D01*
X0029159Y0091365D02*
X0042494Y0091365D01*
X0042494Y0090166D02*
X0029159Y0090166D01*
X0029159Y0088968D02*
X0041327Y0088968D01*
X0040716Y0087769D02*
X0029159Y0087769D01*
X0029159Y0086571D02*
X0040847Y0086571D01*
X0041450Y0085372D02*
X0029159Y0085372D01*
X0029159Y0084174D02*
X0039883Y0084174D01*
X0039919Y0084279D02*
X0039919Y0084279D01*
X0039919Y0084279D01*
X0039426Y0082975D02*
X0029159Y0082975D01*
X0029159Y0081777D02*
X0039064Y0081777D01*
X0038870Y0080578D02*
X0030714Y0080578D01*
X0031641Y0079380D02*
X0038870Y0079380D01*
X0039103Y0078181D02*
X0031859Y0078181D01*
X0031859Y0076983D02*
X0039508Y0076983D01*
X0039919Y0075847D02*
X0039919Y0075847D01*
X0040008Y0075784D02*
X0031859Y0075784D01*
X0031859Y0074586D02*
X0041686Y0074586D01*
X0044410Y0074586D02*
X0046405Y0074586D01*
X0048307Y0074586D02*
X0049112Y0074586D01*
X0054215Y0074586D02*
X0057006Y0074586D01*
X0055647Y0075784D02*
X0055592Y0075784D01*
D13*
X0073332Y0080677D03*
X0083490Y0064142D03*
X0103569Y0068079D03*
X0109080Y0068079D03*
X0082309Y0045638D03*
X0073332Y0045717D03*
X0089002Y0028315D03*
X0099238Y0028315D03*
X0118923Y0035008D03*
X0036246Y0032646D03*
M02*
