G75*
%MOIN*%
%OFA0B0*%
%FSLAX25Y25*%
%IPPOS*%
%LPD*%
%AMOC8*
5,1,8,0,0,1.08239X$1,22.5*
%
%ADD10C,0.06000*%
%ADD11R,0.07200X0.20000*%
%ADD12R,0.01496X0.05512*%
%ADD13R,0.05118X0.05906*%
%ADD14R,0.04724X0.04724*%
%ADD15R,0.03937X0.05512*%
%ADD16R,0.05906X0.05118*%
%ADD17R,0.10039X0.10630*%
%ADD18R,0.07087X0.05512*%
%ADD19R,0.05512X0.03150*%
%ADD20R,0.08661X0.07087*%
%ADD21R,0.03937X0.04331*%
D10*
X0079041Y0016693D02*
X0079041Y0022693D01*
X0089041Y0022693D02*
X0089041Y0016693D01*
X0099041Y0016693D02*
X0099041Y0022693D01*
X0109041Y0022693D02*
X0109041Y0016693D01*
X0119041Y0016693D02*
X0119041Y0022693D01*
X0129041Y0022693D02*
X0129041Y0016693D01*
X0132191Y0083543D02*
X0132191Y0089543D01*
X0122191Y0089543D02*
X0122191Y0083543D01*
X0106994Y0083543D02*
X0106994Y0089543D01*
X0096994Y0089543D02*
X0096994Y0083543D01*
D11*
X0083726Y0093906D03*
X0073332Y0093906D03*
X0063017Y0094063D03*
X0037191Y0093906D03*
D12*
X0091738Y0062291D03*
X0094297Y0062291D03*
X0096856Y0062291D03*
X0099415Y0062291D03*
X0101974Y0062291D03*
X0104533Y0062291D03*
X0107092Y0062291D03*
X0109651Y0062291D03*
X0112210Y0062291D03*
X0114769Y0062291D03*
X0114769Y0034732D03*
X0112210Y0034732D03*
X0109651Y0034732D03*
X0107092Y0034732D03*
X0104533Y0034732D03*
X0101974Y0034732D03*
X0099415Y0034732D03*
X0096856Y0034732D03*
X0094297Y0034732D03*
X0091738Y0034732D03*
D13*
X0049828Y0032646D03*
X0042348Y0032646D03*
X0042466Y0024732D03*
X0049946Y0024732D03*
X0049828Y0059811D03*
X0042348Y0059811D03*
D14*
X0042033Y0016858D03*
X0050301Y0016858D03*
D15*
X0119120Y0067685D03*
X0126600Y0067685D03*
X0131718Y0067685D03*
X0139198Y0067685D03*
X0135458Y0076346D03*
X0122860Y0076346D03*
D16*
X0122860Y0060008D03*
X0122860Y0052528D03*
X0135458Y0052528D03*
X0135458Y0060008D03*
X0083490Y0070244D03*
X0083490Y0077724D03*
D17*
X0062525Y0073197D03*
X0037525Y0073197D03*
D18*
X0061443Y0052724D03*
X0061443Y0039339D03*
D19*
X0053883Y0040126D03*
X0053883Y0046031D03*
X0053883Y0051937D03*
D20*
X0041757Y0046031D03*
D21*
X0046679Y0086583D03*
X0053372Y0086583D03*
M02*
